<?xml version="1.0" standalone="no"?>
<!DOCTYPE svg PUBLIC "-//W3C//DTD SVG 1.1//EN" "http://www.w3.org/Graphics/SVG/1.1/DTD/svg11.dtd" >
<svg xmlns="http://www.w3.org/2000/svg" xmlns:xlink="http://www.w3.org/1999/xlink" version="1.1">
<metadata></metadata>
<defs>
<font id="marteldemibold" horiz-adv-x="1144" >
<font-face units-per-em="2048" ascent="1638" descent="-410" />
<missing-glyph horiz-adv-x="458" />
<glyph unicode="&#xfb01;" horiz-adv-x="1519" d="M721 1690q110 0 143 -19v-170q-17 11 -67.5 22t-114.5 11q-47 0 -75 -7.5t-54 -32t-37.5 -76t-11.5 -134.5v-166h301v-135h-301v-879l229 -18v-86h-622v86l200 20v877h-221v78l221 57v84q0 106 40.5 200.5t102 155.5t132.5 96.5t135 35.5zM1194 1645q62 0 94.5 -35.5 t32.5 -89.5q0 -64 -46 -105t-106 -41q-50 0 -87.5 34t-37.5 89q0 61 47 104.5t103 43.5zM1257 1139l46 -21v-1012l161 -20v-86h-516v86l170 20v820l-137 71v64z" />
<glyph unicode="&#xfb02;" horiz-adv-x="1536" d="M111 86l200 20v877h-221v78l221 57v84q0 106 40.5 200.5t102 155.5t132.5 96.5t135 35.5q110 0 143 -19v-170q-17 11 -67.5 22t-114.5 11q-47 0 -75 -7.5t-54 -32t-37.5 -76t-11.5 -134.5v-166h301v-135h-301v-879l229 -18v-86h-622v86zM944 86l170 20v1354l-160 35v88 l314 41l41 -22v-1496l178 -20v-86h-543v86z" />
<glyph horiz-adv-x="0" />
<glyph horiz-adv-x="682" />
<glyph unicode="&#xd;" horiz-adv-x="0" />
<glyph unicode=" "  horiz-adv-x="458" />
<glyph unicode="&#x09;" horiz-adv-x="458" />
<glyph unicode="&#xa0;" horiz-adv-x="458" />
<glyph unicode="!" horiz-adv-x="706" d="M471 1780l-74 -1291h-116l-66 1291h256zM365 248q63 0 95 -35t32 -90q0 -63 -46 -104.5t-104 -41.5q-52 0 -89.5 34t-37.5 89q0 61 47 104.5t103 43.5z" />
<glyph unicode="&#x22;" horiz-adv-x="1259" d="M297 1782h225l-49 -815h-127zM737 1782h226l-50 -815h-127z" />
<glyph unicode="#" horiz-adv-x="1431" d="M371 365h-221v129h227l33 403h-238v127h244l26 332h166l-24 -332h313l27 332h166l-25 -332h215v-127h-223l-33 -403h221l2 -129h-229l-31 -365h-160l25 365h-315l-31 -365h-164zM856 494l35 403h-316l-32 -403h313z" />
<glyph unicode="$" horiz-adv-x="1269" d="M174 383h88l64 -199q101 -106 331 -106q57 0 110 15.5t97.5 46t71.5 83t27 119.5q0 36 -11.5 70t-27.5 60.5t-48 57t-56.5 50.5t-70.5 49.5t-73 45.5t-80 46q-75 41 -122.5 69.5t-108.5 75t-96 89.5t-60 102.5t-25 124.5q0 87 35.5 157t95.5 114.5t127.5 71t141.5 36.5 l6 170h158l-7 -166q208 -11 312 -74v-279h-86l-78 193q-69 63 -240 63q-34 0 -70.5 -7.5t-75.5 -26t-69 -46.5t-49.5 -73t-19.5 -101q0 -55 26 -104t77.5 -92t103.5 -75.5t128 -72.5q184 -100 259 -157q183 -138 188 -306v-10q0 -82 -24.5 -150t-66.5 -115t-101.5 -80.5 t-127.5 -50.5t-145 -21l-8 -211h-158l8 213q-114 9 -213 32.5t-137 46.5v322z" />
<glyph unicode="%" horiz-adv-x="1769" d="M1233 1602l-547 -1602h-158l545 1602h160zM424 1427q77 3 136 -25t94 -79t53 -117t18 -143q0 -87 -27 -158t-73 -116.5t-105 -70t-125 -26.5q-135 -4 -219 102.5t-84 258.5q0 87 27 158.5t73.5 117t106 71t125.5 27.5zM412 1325q-76 0 -117 -70.5t-41 -193.5 q0 -117 41 -191.5t113 -74.5q77 0 118 68.5t41 191.5q0 124 -40.5 197t-114.5 73zM1374 899q77 3 136 -25t94 -79t53 -117t18 -143q0 -170 -95 -268t-234 -103q-91 -2 -161.5 48t-106.5 132t-36 180q0 172 97 272t235 103zM1362 797q-76 0 -118 -71t-42 -194q0 -116 42 -191 t114 -75q77 0 118.5 68.5t41.5 191.5t-41.5 197t-114.5 74z" />
<glyph unicode="&#x26;" horiz-adv-x="1568" d="M713 1565q86 0 153 -27.5t107 -74.5t60 -106t20 -126q0 -244 -326 -453q78 -103 210 -255t208 -220q5 12 9 26t6.5 25.5t4 27.5t2.5 24.5t1.5 26t0.5 23v24v20.5q0 91 -13.5 157t-25.5 80h187q29 -106 29 -194q0 -199 -93 -332q123 -94 226 -111v-84q-65 -21 -144 -6 q-101 16 -202 82q-70 -60 -178 -92.5t-210 -32.5q-57 0 -114.5 7t-123 23t-121 46.5t-101.5 73t-72.5 107.5t-26.5 145q0 133 83 230t237 177q-35 49 -52 74t-45.5 73t-42 83t-25 82t-11.5 92q0 179 108 282t275 103zM690 1464q-32 0 -64 -11.5t-61.5 -35.5t-48 -68.5 t-18.5 -103.5q0 -66 15.5 -126t44.5 -111t51 -82t55 -70q225 120 225 344q0 44 -9 86t-29.5 84t-62 68t-98.5 26zM561 692q-105 -70 -148.5 -132.5t-43.5 -166.5q0 -95 53 -165.5t140 -106t194 -35.5q197 0 284 78q-103 88 -251 252t-228 276z" />
<glyph unicode="'" horiz-adv-x="819" d="M297 1782h225l-49 -815h-127z" />
<glyph unicode="(" horiz-adv-x="813" d="M598 -319q-25 15 -57 40.5t-80 75t-93 109t-92 146.5t-82 183.5t-57 224.5t-22 265q0 138 29 272.5t75.5 238.5t101 193.5t110.5 153t98 102.5t69 54l86 -53q-29 -20 -70 -63.5t-96 -126.5t-100.5 -183t-79.5 -243t-39 -296q-6 -169 24.5 -328.5t78.5 -272t108 -208 t106.5 -146.5t81.5 -77z" />
<glyph unicode=")" horiz-adv-x="813" d="M129 -256q29 20 70 63.5t96 126.5t100.5 182.5t79.5 242.5t39 296q6 168 -24.5 327.5t-78.5 272.5t-108 208.5t-106.5 147t-81.5 77.5l100 61q25 -15 57 -40.5t79.5 -75t93 -109.5t92.5 -147t82 -183.5t57 -224t22 -264.5q0 -138 -29 -272.5t-75.5 -238.5t-101 -193.5 t-110.5 -153t-98 -102.5t-69 -54z" />
<glyph unicode="*" horiz-adv-x="1294" d="M584 1126l26 105l-63 -72l-295 -231l-100 139l342 180l92 31l-90 31l-346 174l98 143l295 -229l67 -70l-26 115l-33 344h182l-31 -344l-32 -115l86 82l276 215l113 -143l-350 -166l-101 -37l101 -33l350 -178l-115 -137l-289 231l-69 70l26 -105l35 -358h-182z" />
<glyph unicode="+" horiz-adv-x="1269" d="M557 561l6 166l-166 -6h-219v153h219l166 -12l-6 170v228h156v-228l-11 -170l138 12h252v-153h-252l-138 6l11 -166v-239h-156v239z" />
<glyph unicode="," horiz-adv-x="684" d="M197 133l110 146q75 -18 126.5 -77t71 -121.5t19.5 -123.5q0 -159 -94 -281t-223 -174l-47 60v26q72 23 126 109.5t54 181.5q0 76 -43.5 140.5t-99.5 68.5v45z" />
<glyph unicode="-" horiz-adv-x="1241" d="M178 874h885v-147h-885v147z" />
<glyph unicode="." horiz-adv-x="706" d="M365 248q63 0 95 -35t32 -90q0 -63 -46 -104.5t-104 -41.5q-52 0 -89.5 34t-37.5 89q0 61 47 104.5t103 43.5z" />
<glyph unicode="/" horiz-adv-x="815" d="M602 1599h184l-573 -1961h-182z" />
<glyph unicode="0" horiz-adv-x="1327" d="M682 1251q114 1 203 -30t147.5 -87t96 -136.5t53 -172.5t14.5 -202q-1 -141 -43.5 -263t-114.5 -207t-171 -133.5t-210 -48.5t-201 36t-150 97.5t-100 147t-58 180.5t-17 201q2 141 48 259t121.5 195t174 120t207.5 44zM670 1147q-175 1 -253.5 -128.5t-78.5 -377.5 q0 -110 20 -208t58.5 -178t103 -128t146.5 -49q173 -4 249 132.5t76 403.5q0 155 -32 270.5t-105.5 187.5t-183.5 75z" />
<glyph unicode="1" horiz-adv-x="933" d="M117 86l291 27v911q-45 -9 -136.5 -26.5t-136.5 -26.5l-20 98q92 28 246.5 97t189.5 98l51 -15l-2 -1138l268 -25v-86h-751v86z" />
<glyph unicode="2" horiz-adv-x="1220" d="M131 80q135 85 251 178t210.5 193t148.5 204t54 197q0 51 -14.5 98.5t-44.5 88.5t-83 66t-123 25q-93 0 -188.5 -46t-159.5 -101l-47 78q64 78 193.5 140.5t269.5 62.5q99 0 177 -29.5t125 -79t71 -110t24 -127.5q0 -201 -173.5 -418t-446.5 -381l571 43l96 141l86 -29 l-65 -274h-903z" />
<glyph unicode="3" horiz-adv-x="1073" d="M500 1270q73 0 138.5 -18.5t120.5 -56.5t87.5 -103t32.5 -150q0 -118 -104 -237t-232 -156q204 7 313 -89t109 -247q0 -101 -49 -199t-135 -175t-215 -124t-277 -47q-79 0 -164 15v108q51 -10 123 -10q213 0 361.5 115t148.5 278q0 150 -78.5 225.5t-265.5 75.5 q-11 -2 -33.5 -7t-34.5 -7l-86 -19v133q113 22 205 64.5t150 106.5t59 137q3 129 -65 190.5t-175 61.5q-102 0 -174.5 -30t-140.5 -83l-53 88q58 60 173 110t261 50z" />
<glyph unicode="4" horiz-adv-x="1253" d="M76 94q50 92 152 273t164 293.5t149.5 283t160.5 330.5h64l117 -88l-566 -967l-71 -104l522 30l2 469l176 50v-506l211 12v-170h-211v-377h-180l2 377h-662z" />
<glyph unicode="5" horiz-adv-x="1079" d="M137 -246q144 -15 286.5 43.5t236.5 177t94 261.5q0 104 -32 177.5t-86.5 112.5t-130.5 52t-161 2t-180 -43l-35 28l78 672h530l29 18h113l-50 -184h-477l-73 -426q88 42 183.5 53.5t183 -11.5t158 -74.5t112.5 -143.5t42 -211q0 -105 -55 -213.5t-148.5 -196 t-229.5 -143t-285 -55.5q-63 0 -105 12z" />
<glyph unicode="6" horiz-adv-x="1251" d="M987 1534l41 -84q-210 -68 -368.5 -197t-239.5 -280t-86 -305q-4 -94 2.5 -175t28.5 -158.5t59 -131t98.5 -86.5t143.5 -33q73 0 130.5 33t91 87t51 116.5t17.5 128.5q0 185 -68.5 287t-176.5 102q-77 0 -119.5 -15t-81.5 -45l-45 78q27 40 117 76.5t180 36.5 q74 0 137.5 -25.5t107.5 -68.5t75.5 -99.5t46 -119t14.5 -126.5q0 -98 -34.5 -195t-97.5 -176.5t-162 -129t-216 -49.5q-116 0 -212.5 47t-160 126.5t-98.5 185.5t-35 224q0 149 50.5 290.5t136 252.5t196.5 201t233 147t244 80z" />
<glyph unicode="7" horiz-adv-x="1236" d="M365 -246q31 64 64 133.5t59 125.5t63 139t57 128t60.5 142t55 131t60 144.5t55 133.5t60.5 147.5t57 139.5l-618 -22l-94 -178l-101 10l50 325h892l35 -39l-555 -1529z" />
<glyph unicode="8" horiz-adv-x="1241" d="M655 1552q175 0 292.5 -96.5t117.5 -249.5q0 -116 -77 -237.5t-200 -182.5q77 -46 129 -83t105 -86t80 -102.5t28 -111.5q1 -87 -27 -160t-76.5 -122.5t-113 -84t-135.5 -50t-145 -15.5q-91 0 -177.5 24.5t-161 71.5t-120 126.5t-45.5 179.5q0 116 80.5 225.5 t232.5 185.5q-111 75 -173 166.5t-62 214.5q0 95 38.5 171t103 122t143 70t163.5 24zM645 1456q-110 0 -195 -72t-85 -186q0 -51 24.5 -98.5t72.5 -92t98 -79.5t122 -78q85 25 150.5 113t68.5 180q6 137 -68.5 225t-187.5 88zM537 723q-95 -44 -159.5 -125.5t-64.5 -177.5 q0 -146 96 -246t255 -100q112 0 202 73.5t90 186.5q0 37 -11.5 70.5t-37 64t-51.5 54.5t-70 53t-76 47.5t-87 50t-86 49.5z" />
<glyph unicode="9" horiz-adv-x="1259" d="M238 -319q126 41 235.5 115t187.5 164.5t135 194.5t86 208t33 202q5 74 0 146.5t-14.5 137.5t-34 120.5t-59 95.5t-88 63t-121.5 23q-73 0 -130.5 -33.5t-91.5 -87.5t-51.5 -117t-17.5 -129q0 -184 69.5 -286.5t178.5 -102.5q61 0 117.5 18t83.5 42l45 -78 q-40 -47 -123 -80t-174 -33q-92 0 -167 38.5t-120.5 102t-69.5 140t-24 157.5q0 98 34.5 195t97.5 177t162 129.5t216 49.5q115 0 209 -47t154 -128t92 -185.5t32 -222.5q0 -159 -48.5 -313.5t-132.5 -280t-191.5 -227.5t-230 -167t-243.5 -88z" />
<glyph unicode=":" horiz-adv-x="706" d="M365 1057q63 0 95 -34.5t32 -88.5q0 -63 -46 -104.5t-104 -41.5q-52 0 -89.5 33.5t-37.5 89.5q0 61 46.5 103.5t103.5 42.5zM365 248q63 0 95 -35t32 -90q0 -63 -46 -104.5t-104 -41.5q-52 0 -89.5 34t-37.5 89q0 61 47 104.5t103 43.5z" />
<glyph unicode=";" horiz-adv-x="706" d="M365 1057q63 0 95 -34.5t32 -88.5q0 -63 -46 -104.5t-104 -41.5q-52 0 -89.5 33.5t-37.5 89.5q0 61 46.5 103.5t103.5 42.5zM346 279q75 -18 126.5 -77t71 -121.5t19.5 -123.5q0 -159 -94 -281t-223 -174l-47 60v26q72 23 126 109.5t54 181.5q0 76 -43.5 140.5 t-99.5 68.5v45z" />
<glyph unicode="&#x3c;" horiz-adv-x="1325" d="M129 817l969 496v-183l-799 -378l799 -377v-185l-969 494v133z" />
<glyph unicode="=" horiz-adv-x="1241" d="M178 1061h885v-148h-885v148zM178 672h885v-148h-885v148z" />
<glyph unicode="&#x3e;" horiz-adv-x="1325" d="M227 373l799 379l-799 376v185l969 -494v-135l-969 -494v183z" />
<glyph unicode="?" horiz-adv-x="1011" d="M319 1835q131 0 237 -36t174.5 -93.5t114.5 -133.5t65.5 -153t19.5 -155q0 -88 -20 -126.5t-103 -86.5q-38 -22 -110 -57.5t-111.5 -57t-73 -55.5t-33.5 -70q0 -29 5.5 -60t17.5 -67t21 -60.5t28 -69.5t27 -65h-107q-56 44 -119 162.5t-63 186.5q1 44 49.5 86t105 68 t140 61.5t118.5 54.5q43 23 58.5 37.5t15.5 38.5q4 125 -63 235.5t-179.5 175t-238.5 64.5q-110 0 -166 -23v154q17 20 72.5 32.5t117.5 12.5zM555 248q63 0 95 -35t32 -90q0 -63 -46 -104.5t-104 -41.5q-52 0 -89 34t-37 89q0 61 46.5 104.5t102.5 43.5z" />
<glyph unicode="@" horiz-adv-x="2134" d="M1217 1438q192 0 346.5 -74t246 -218t91.5 -335q0 -158 -35 -290.5t-91.5 -219.5t-129 -147.5t-144.5 -87.5t-141 -27q-107 0 -121 156q-10 87 23 270q-46 -115 -104.5 -210.5t-136 -162.5t-151.5 -67q-99 0 -176.5 112t-77.5 293q0 98 31.5 206t87.5 202t144.5 155.5 t191.5 61.5q61 0 135.5 -13t120.5 -38q8 23 18 36t27 9l119 -39q-36 -159 -84 -613q-11 -106 -2 -173.5t33 -67.5q35 0 78.5 28.5t86 82.5t78.5 123.5t58 160.5t22 184q0 124 -35 223t-94 163.5t-140.5 107t-169 60.5t-185.5 18q-120 0 -231 -33.5t-206 -102.5t-166 -166 t-111 -231.5t-40 -292.5q0 -156 38 -280t103.5 -206t158 -136t196 -77.5t223.5 -23.5q86 0 190 20.5t156 45.5l37 -86q-65 -51 -197 -84t-264 -33q-170 0 -315 56.5t-249.5 158t-164 251.5t-59.5 329q0 183 52 345.5t144 285t215 211.5t269 134.5t301 45.5zM1075 907 q-64 0 -115.5 -21.5t-86 -58t-57 -88.5t-32.5 -109.5t-10 -123.5q0 -47 5 -92.5t18 -100t43 -87.5t73 -33q62 0 147 114.5t150 267.5t78 267q-28 30 -93.5 47.5t-119.5 17.5z" />
<glyph unicode="A" horiz-adv-x="1492" d="M2 86l143 29l521 1437h168l497 -1437l160 -29v-86h-528v86l165 29l-106 321h-600l-109 -321l166 -29v-86h-477v86zM981 555l-162 487l-94 301l-264 -788h520z" />
<glyph unicode="B" horiz-adv-x="1419" d="M106 86l168 29v1323l-163 16v98h251q22 1 91 6t137.5 7.5t140.5 1.5q239 -1 366.5 -94t127.5 -256q0 -144 -74 -246t-219 -135q168 -3 280.5 -108t112.5 -271q0 -103 -40 -188t-118.5 -148.5t-203.5 -99t-285 -35.5q-73 0 -318 14h-254v86zM469 879q24 -4 59 -6t60.5 -2 t67 0.5t55.5 0.5q155 0 242 79t87 229q0 135 -96.5 207.5t-253.5 72.5q-2 0 -35.5 0.5t-51.5 0t-48 -1.5t-50.5 -4.5t-33.5 -8.5zM469 135q26 -16 106 -27.5t148 -11.5q85 0 154.5 17.5t124.5 54t85.5 100t30.5 150.5q0 171 -93.5 251.5t-283.5 80.5q-226 0 -272 -5v-610z " />
<glyph unicode="C" horiz-adv-x="1409" d="M893 1567q66 0 135 -9t110.5 -19t98 -25t72.5 -19l-17 -289h-104l-53 166q-65 43 -133.5 60.5t-172.5 17.5q-108 0 -204.5 -45t-171 -127.5t-118.5 -210t-44 -281.5q0 -115 22.5 -219.5t68.5 -193.5t111 -155t156.5 -103t198.5 -37q227 0 319 119l58 153h86v-287 q-33 -2 -104 -25.5t-176 -45t-230 -21.5q-153 0 -286 56t-227 154.5t-148 239t-54 304.5q0 151 42.5 284.5t118.5 234.5t177 174.5t221 111t248 37.5z" />
<glyph unicode="D" horiz-adv-x="1593" d="M106 86l168 29v1323l-163 16v98h262q95 0 207.5 7.5t169.5 7.5q377 3 565 -194t188 -556q0 -192 -61 -351t-167.5 -263.5t-251 -160.5t-310.5 -52q-245 10 -336 10h-271v86zM469 131q127 -34 279 -31q89 2 169.5 28.5t150.5 80t121 130.5t80 187t29 242q0 345 -161.5 520 t-448.5 166q-123 -2 -219 -18v-1305z" />
<glyph unicode="E" horiz-adv-x="1318" d="M102 86l168 29v1323l-164 16v98h1039l29 -284h-111l-45 168l-553 12v-584l373 8l28 156h103v-430h-103l-28 154l-373 6v-649l594 18l100 207l96 -25l-45 -309h-1108v86z" />
<glyph unicode="F" horiz-adv-x="1236" d="M104 86l170 29v1323l-163 16v98h1073l18 -284l-98 -2l-47 164l-588 14v-596l440 8l39 145h99v-419h-111l-27 149l-440 8v-624l289 -21v-94h-654v86z" />
<glyph unicode="G" horiz-adv-x="1536" d="M889 1567q71 0 135 -4.5t116.5 -13.5t85.5 -16t73 -17.5t49 -12.5l-17 -291h-106l-51 168q-19 26 -112.5 49.5t-236.5 20.5q-107 -2 -203.5 -48t-170 -129t-117 -209t-43.5 -278q0 -110 20.5 -212.5t63.5 -193t105 -157.5t151.5 -106t195.5 -39q236 0 330 104v412 l-242 16v99h562v-99l-123 -18v-510q-30 -2 -125.5 -30t-218.5 -54.5t-230 -26.5q-203 0 -361.5 97.5t-245.5 269.5t-87 387q0 151 41.5 284.5t116 234.5t174.5 174.5t220.5 111t250.5 37.5z" />
<glyph unicode="H" horiz-adv-x="1705" d="M106 86l168 29v1323l-163 16v98h522v-98l-164 -16v-625h768v625l-166 16v98h520v-98l-159 -16v-1323l172 -29v-86h-539v86l172 29v581h-768v-581l172 -29v-86h-535v86z" />
<glyph unicode="I" horiz-adv-x="763" d="M104 86l181 29v1323l-176 16v98h542v-98l-172 -16v-1323l183 -29v-86h-558v86z" />
<glyph unicode="J" horiz-adv-x="720" d="M641 1552v-98l-162 -16v-887q0 -34 0.5 -109t0.5 -113.5t-1.5 -95t-6 -101t-11.5 -83.5q-19 -95 -69.5 -174t-119.5 -132t-147 -86.5t-160 -45.5l-51 70q253 83 324 260q29 82 38 185.5t9 274.5v1037l-166 16v98h522z" />
<glyph unicode="K" horiz-adv-x="1419" d="M106 86l168 29v1323l-163 16v98h522v-98l-164 -16v-690l569 690l-153 16l-2 98h499v-98l-163 -16l-469 -541q53 -60 175.5 -258.5t225 -357t131.5 -158.5l162 -37v-86h-309q-24 0 -88 100.5t-133 227t-149.5 258.5t-127.5 180l-168 -193v-460l184 -27v-86h-547v86z" />
<glyph unicode="L" horiz-adv-x="1243" d="M106 86l168 29v1312l-163 17v108h536v-108l-176 -17l-2 -1314l535 22l122 240l88 -43l-65 -332h-1043v86z" />
<glyph unicode="M" horiz-adv-x="1976" d="M78 86l172 29l98 1312l-194 17v108h460l361 -1089l47 -148l45 152l344 1085h424v-108l-186 -17l112 -1312l172 -29v-86h-520v86l166 29l-84 936l-8 346l-41 -164l-422 -1247h-68l-383 1093q-10 27 -110 328l-8 -342l-49 -950l190 -29v-86h-518v86z" />
<glyph unicode="N" horiz-adv-x="1662" d="M1585 1552v-106l-166 -19v-1427h-205l-659 1040l-137 279v-1204l194 -29v-86h-508v86l170 29v1312l-163 17v108h354l670 -1093l141 -275v1243l-164 19v106h473z" />
<glyph unicode="O" horiz-adv-x="1554" d="M827 1567q196 0 345 -102t225.5 -278.5t72.5 -398.5q-4 -189 -61.5 -344.5t-153 -258t-223 -158.5t-272.5 -56q-200 0 -353.5 99t-235 271.5t-81.5 389.5q0 265 106 460t281 290q158 86 350 86zM786 1460q-221 0 -351 -188t-130 -518q0 -131 33.5 -252.5t94 -216 t153.5 -151t205 -56.5q219 0 340.5 187t121.5 521q0 132 -30.5 252.5t-88 215t-147.5 150.5t-201 56z" />
<glyph unicode="P" horiz-adv-x="1296" d="M86 86l188 29v1312l-163 17v108h262q23 0 152.5 7.5t203.5 7.5q121 0 212 -22.5t163 -74t109.5 -143.5t37.5 -223q0 -118 -49 -217t-130.5 -162.5t-185.5 -97.5t-214 -31q-154 3 -203 -6v-475l268 -29v-86h-651v86zM469 709q85 -13 201 -13q63 0 114.5 9t103 36 t86.5 70.5t57 117t22 171.5q0 183 -103 272.5t-297 83.5q-132 -8 -184 -20v-727z" />
<glyph unicode="Q" horiz-adv-x="1554" d="M827 1567q196 0 345 -102t225.5 -278.5t72.5 -398.5q-6 -326 -162 -536.5t-401 -263.5q74 -178 396 -178q90 0 139 32l18 -123q-22 -31 -82 -53t-141 -22q-78 0 -141.5 14.5t-124 49.5t-105 101.5t-69.5 161.5h-23q-155 0 -285.5 59t-218.5 161t-135.5 241.5t-44.5 298.5 q0 265 106 460t281 290q158 86 350 86zM786 1460q-221 0 -351 -188t-130 -518q0 -131 33.5 -252.5t94 -216t153.5 -151t205 -56.5q219 0 340.5 187t121.5 521q0 132 -30.5 252.5t-88 215t-147.5 150.5t-201 56z" />
<glyph unicode="R" horiz-adv-x="1419" d="M674 1567q121 0 212 -19.5t164 -65.5t110.5 -128.5t37.5 -200.5q0 -154 -91 -271t-243 -169l21 -8q63 -32 133 -127.5t119.5 -192t102 -178.5t85.5 -92l109 -29v-86h-289q-27 0 -69 71.5t-90.5 173t-102.5 201.5t-121 167t-131 61q-47 -2 -162 -2v-557l209 -29v-86h-592 v86l188 29v1312l-163 17v108h262q23 0 124.5 7.5t176.5 7.5zM647 1460q-17 -1 -47.5 -2t-48.5 -2t-41 -4t-41 -8v-660q50 -6 178 -6q166 0 257 86t91 266q0 164 -79.5 250.5t-268.5 79.5z" />
<glyph unicode="S" horiz-adv-x="1228" d="M610 -23q-140 0 -274 27t-182 57v322h88l63 -199q101 -106 332 -106q45 0 88 9.5t82.5 30t69.5 51t47.5 75t17.5 98.5q0 36 -11.5 69.5t-27.5 61t-47 57.5t-56.5 50.5t-70.5 49t-73.5 45.5t-80.5 46q-61 33 -102 57.5t-94 60.5t-87 70.5t-65.5 77t-47 91.5t-15.5 104 q0 80 31 146.5t80.5 110t113.5 73t128.5 42.5t127.5 13q133 0 234.5 -23t152.5 -53v-279h-86l-78 193q-69 63 -237 63q-45 0 -91.5 -13t-92 -40.5t-74.5 -79.5t-29 -121q0 -44 19 -85.5t48 -74.5t76 -67.5t90 -59.5t103 -57q62 -33 93 -50.5t87 -52t86 -59t70 -63t60 -73.5 t35 -80.5t15 -94.5q0 -108 -41.5 -191t-114.5 -132t-163.5 -73t-196.5 -24z" />
<glyph unicode="T" horiz-adv-x="1269" d="M309 86l246 29v1327l-365 -21l-69 -170l-90 -2l24 303h1190l-2 -307l-82 -8l-51 186l-360 19v-1327l260 -29v-86h-701v86z" />
<glyph unicode="U" horiz-adv-x="1576" d="M1544 1552v-98l-158 -18v-750q0 -184 -42 -322t-119.5 -223.5t-182 -127.5t-235.5 -42q-169 0 -288 44t-191.5 133t-105 215t-32.5 299q0 130 1.5 388t1.5 388l-160 16v98h532v-98l-178 -18v-781q0 -132 22.5 -233t61.5 -166t97.5 -106t124 -57.5t147.5 -16.5 q397 0 397 610v750l-182 18v98h489z" />
<glyph unicode="V" horiz-adv-x="1425" d="M137 1440l-133 14v98h539v-98l-181 -16l338 -1024l70 -219l59 221l299 1022l-163 16v98h454v-98l-121 -14l-485 -1460h-149z" />
<glyph unicode="W" horiz-adv-x="2101" d="M135 1438l-131 16v98h537v-98l-191 -16l314 -1030l61 -195l61 182l213 862l-57 181l-162 16v98h545v-98l-172 -16l270 -1051l50 -190l51 229l262 1012l-174 16v98h483v-98l-147 -16l-426 -1458h-162l-287 1015l-285 -1015h-163z" />
<glyph unicode="X" horiz-adv-x="1419" d="M14 86l179 29l428 665l-420 658l-150 16v98h561v-98l-178 -16l314 -539l309 539l-154 16v98h477v-98l-143 -14l-418 -621l441 -704l165 -29v-86h-575v86l186 29l-350 567l-313 -567l190 -29v-86h-549v86z" />
<glyph unicode="Y" horiz-adv-x="1351" d="M401 86l205 31v522l-479 799l-115 16v98h492v-98l-154 -16l318 -592l49 -103l45 105l287 588l-170 18v98h460v-98l-131 -27l-407 -790v-520l215 -31v-86h-615v86z" />
<glyph unicode="Z" horiz-adv-x="1351" d="M1253 1552l29 -86l-862 -1235l-98 -120l749 39l129 253l100 -22l-71 -381h-1110l-27 88l869 1235l102 121l-713 -23l-94 -227l-106 18l30 340h1073z" />
<glyph unicode="[" horiz-adv-x="854" d="M201 1487q0 149 37 199.5t151 50.5q32 0 60.5 -2t58 -7.5t47.5 -9.5t51.5 -12.5t48.5 -11.5l-2 -86h-291v-1667l291 -2l2 -86q-61 -16 -86.5 -22.5t-76.5 -13.5t-103 -7q-114 0 -151 50t-37 199v1428z" />
<glyph unicode="\" horiz-adv-x="815" d="M213 1599l573 -1961h-184l-571 1961h182z" />
<glyph unicode="]" horiz-adv-x="854" d="M492 -59v1667h-291v86q11 3 47 12t52.5 12.5t47 9t58.5 7.5t59 2q116 0 153 -50t37 -200v-1428q0 -149 -37 -199t-153 -50q-51 0 -101 7t-78.5 14t-84.5 22v86z" />
<glyph unicode="^" horiz-adv-x="1320" d="M561 1532h197l385 -969h-176l-318 762l-315 -762h-156z" />
<glyph unicode="_" horiz-adv-x="1415" d="M1436 -193v-147h-1456v147h1456z" />
<glyph unicode="`" horiz-adv-x="884" d="M608 1339q-105 49 -219 128.5t-168 162.5l148 150l293 -385z" />
<glyph unicode="a" d="M563 1139q393 0 393 -367l-2 -686h127v-68q-81 -43 -188 -43q-71 0 -95 29.5t-24 104.5q-108 -134 -334 -134q-142 0 -232.5 89t-90.5 219q0 85 44 153t112 110t156.5 70t171.5 39t163 11v86q0 76 -20.5 128t-60 78.5t-85.5 37t-109 10.5q-59 0 -140 -21t-150 -55l-37 90 q67 56 189 87.5t212 31.5zM764 561q-72 0 -144 -11.5t-145 -37t-118.5 -76t-45.5 -119.5q0 -113 60.5 -164t177.5 -51q56 0 118 26.5t95 59.5z" />
<glyph unicode="b" horiz-adv-x="1263" d="M203 1466l-170 35v88l321 35l41 -16v-584q69 58 145 93.5t181 35.5q87 0 163.5 -30.5t140.5 -93.5t101 -172t37 -253q0 -127 -41.5 -242.5t-114 -202t-179 -137.5t-230.5 -51q-131 0 -251.5 26.5t-143.5 51.5v1417zM395 158q14 -40 75 -60t151 -20q67 0 128 29.5 t111.5 87t81 154t31.5 220.5q2 116 -25.5 204.5t-76.5 139.5t-107 76t-123 25q-79 0 -142.5 -28t-103.5 -66v-762z" />
<glyph unicode="c" horiz-adv-x="1044" d="M649 1149q88 3 169 -10t120 -39v-242h-94l-51 127q-58 47 -164 47q-68 0 -128 -25.5t-107 -74t-75.5 -127t-29.5 -178.5q-1 -131 32 -233t87 -160t116.5 -87.5t128.5 -29.5q78 0 162 17t125 42l35 -88q-57 -51 -163.5 -79.5t-223.5 -28.5q-151 0 -261 73t-165.5 198 t-57.5 288q-1 270 153.5 435.5t391.5 174.5z" />
<glyph unicode="d" horiz-adv-x="1269" d="M1014 1624l45 -22v-1516h135v-76q-33 -18 -95 -30.5t-116 -12.5q-64 0 -86.5 27t-22.5 102q-40 -44 -128.5 -82.5t-208.5 -38.5q-68 0 -131 21t-119 66.5t-97.5 111t-65.5 160t-24 207.5q0 131 45 245.5t122.5 194.5t184 126t226.5 46q109 0 188 -27v334l-213 35v88z M653 1047q-48 0 -95 -13.5t-95.5 -47.5t-85.5 -84.5t-61 -131t-25 -180.5q-1 -119 25.5 -212.5t72.5 -150t103.5 -85.5t121.5 -29q71 0 140.5 23t111.5 65v766q-70 80 -213 80z" />
<glyph unicode="e" d="M653 1153q176 3 279 -108t112 -310q2 -77 -12 -190h-741q0 -201 102 -316.5t287 -115.5q78 0 165.5 17.5t129.5 41.5l37 -84q-57 -51 -174 -82t-236 -31q-238 0 -370 156.5t-132 423.5q0 257 154 424.5t399 173.5zM600 1044q-58 0 -108.5 -21.5t-93 -65.5t-70.5 -119 t-35 -174h547q16 270 -105 348q-49 32 -135 32z" />
<glyph unicode="f" horiz-adv-x="837" d="M111 86l200 20v877h-221v78l221 57v84q0 106 40.5 200.5t102 155.5t132.5 96.5t135 35.5q110 0 143 -19v-170q-17 11 -67.5 22t-114.5 11q-47 0 -75 -7.5t-54 -32t-37.5 -76t-11.5 -134.5v-166h301v-135h-301v-879l229 -18v-86h-622v86z" />
<glyph unicode="g" horiz-adv-x="1202" d="M602 1161q180 3 291 -80q45 52 162 52h121v-152h-197q45 -76 45 -190q0 -127 -63 -222t-163 -141.5t-220 -46.5q-121 0 -211 37q-6 -15 -8.5 -36t-3 -33.5t0 -35.5t0.5 -24q0 -56 29.5 -85.5t97.5 -33.5q61 -6 258 -6q78 0 140 -11t102.5 -28.5t70.5 -44.5t45.5 -52.5 t24.5 -60t11 -59.5t2 -58q0 -173 -141 -276.5t-386 -103.5q-76 0 -143 8.5t-130.5 30t-109 54.5t-73 85.5t-27.5 118.5q0 84 52.5 158t117.5 114q-33 12 -55.5 28t-33.5 30.5t-17 36.5t-6.5 34t-0.5 35v10q0 42 34 114.5t89 121.5q-162 101 -162 305q0 100 39.5 179 t105.5 126.5t145.5 73.5t166.5 28zM575 1057q-237 0 -237 -264q0 -64 15 -118t46 -97t84 -67t123 -24q121 0 173 67.5t52 209.5q0 149 -63.5 221t-192.5 72zM373 18q-60 -72 -60 -188q0 -65 25.5 -114t71 -77.5t102 -42.5t123.5 -14q164 0 255 55.5t91 163.5q0 52 -11 86.5 t-42 62.5t-90 41t-150 13l-127 2q-115 0 -188 12z" />
<glyph unicode="h" horiz-adv-x="1404" d="M125 86l149 20v1354l-172 35v88l318 41l47 -22l-2 -443l-4 -172q85 68 196.5 110t194.5 42q101 0 166.5 -30t102.5 -98t51.5 -163.5t13.5 -241.5v-500l149 -20v-86h-510v86l168 20v416q0 76 -1.5 124.5t-6.5 103.5t-15 88t-27 66t-42 50.5t-60.5 28t-82.5 10.5 q-174 0 -291 -84v-803l145 -20v-86h-487v86z" />
<glyph unicode="i" horiz-adv-x="681" d="M356 1645q63 0 95 -35t32 -90q0 -63 -45.5 -104.5t-103.5 -41.5q-52 0 -89.5 34t-37.5 89q0 61 46.5 104.5t102.5 43.5zM422 1139l45 -21v-1012l162 -20v-86h-516v86l170 20v820l-140 71v64z" />
<glyph unicode="j" horiz-adv-x="649" d="M348 1673q63 0 95 -34.5t32 -90.5q0 -63 -44.5 -103t-104.5 -40q-52 0 -88.5 33.5t-36.5 89.5q0 61 46 103t101 42zM418 1139l45 -21v-1134q0 -232 -98 -365t-265 -133q-94 0 -108 14v138q28 -11 108 -11q97 0 135.5 80.5t38.5 290.5v928l-139 73v60z" />
<glyph unicode="k" horiz-adv-x="1273" d="M111 86l163 20v1354l-180 35v88l332 41l41 -22v-897l-6 -154l444 459l-149 14v104h471v-104l-152 -16l-340 -342l422 -560l137 -20v-86h-485v86l139 23l-330 460l-157 -157l6 -195v-113l143 -18v-86h-499v86z" />
<glyph unicode="l" horiz-adv-x="698" d="M109 86l170 20v1354l-160 35v88l311 41l41 -22v-1496l178 -20v-86h-540v86z" />
<glyph unicode="m" horiz-adv-x="2070" d="M137 86l137 20v814l-143 77v64l266 78l45 -21v-141q71 62 186 110.5t212 51.5q109 5 175.5 -28t102.5 -114q74 55 189.5 97t210.5 45q185 6 259 -104.5t74 -372.5v-556l168 -20v-86h-495v86l135 20v521q0 103 -9 167.5t-35 113.5t-74 68.5t-124 16.5q-125 -6 -266 -86 q23 -103 23 -235v-568l153 -18v-86h-496v86l150 20v535q0 102 -9.5 165t-36.5 109t-74.5 63.5t-123.5 14.5q-130 -7 -268 -104v-783l147 -20v-86h-479v86z" />
<glyph unicode="n" horiz-adv-x="1396" d="M137 86l137 18v816l-143 77v64l266 78l45 -21v-141q73 62 189.5 110.5t214.5 51.5q183 6 257.5 -103.5t74.5 -365.5v-566l159 -18v-86h-503v86l151 20v529q0 99 -9.5 162t-35.5 111t-74 68t-123 17q-135 -7 -274 -104v-783l147 -20v-86h-479v86z" />
<glyph unicode="o" horiz-adv-x="1230" d="M635 1153q124 1 221 -44t157 -124.5t90.5 -184t29.5 -227.5q-1 -131 -43 -243.5t-112.5 -189.5t-165.5 -121t-202 -44t-194 33t-145 89.5t-97 134t-56 165.5t-16 185q2 130 47 238.5t118.5 180t168.5 111t199 41.5zM623 1047q-164 3 -240 -114.5t-76 -340.5 q0 -135 32.5 -245.5t105 -183.5t173.5 -75q165 -3 237.5 116.5t72.5 358.5q0 139 -31 245t-101 171.5t-173 67.5z" />
<glyph unicode="p" horiz-adv-x="1323" d="M784 1153q70 0 132.5 -18.5t119.5 -60.5t98.5 -105t66 -158.5t24.5 -214.5q0 -170 -71.5 -311t-203.5 -224.5t-297 -83.5q-80 0 -202 31l6 -268v-146l194 -20v-86h-526v86l139 23v1323l-141 77v64l264 78l45 -21v-117q51 59 145 105.5t207 46.5zM705 1024 q-129 0 -250 -104l2 -750q51 -88 221 -88q67 0 127.5 27.5t112 83t82.5 152.5t32 224q2 121 -24.5 212t-74 142.5t-105 76t-123.5 24.5z" />
<glyph unicode="q" horiz-adv-x="1241" d="M692 1153q122 0 209 -37l121 25l39 -21v-1515l135 -21v-96h-532v96l204 21v348l6 153q-135 -135 -337 -135q-34 0 -69.5 5.5t-79.5 21.5t-83 42t-77.5 71t-66 103t-44.5 144t-17 189q0 169 74.5 307t210.5 218.5t307 80.5zM659 1047q-160 0 -262 -121t-106 -346 q-3 -227 81.5 -348t233.5 -121q88 0 155.5 27.5t106.5 66.5v762q-64 80 -209 80z" />
<glyph unicode="r" horiz-adv-x="923" d="M113 86l161 20v814l-143 77v64l264 78l47 -21v-153q40 60 147 117t195 57q75 0 99 -6v-205q-4 1 -25.5 8t-31.5 10t-30.5 7.5t-42.5 6t-48 1.5q-130 0 -236 -70v-782l285 -23v-86h-641v86z" />
<glyph unicode="s" horiz-adv-x="1048" d="M168 291h88l41 -123q51 -43 100.5 -63t116.5 -21q117 -3 186.5 44.5t69.5 143.5q0 29 -12.5 54.5t-29 43t-49 37t-57 31t-68.5 32t-69 32.5q-68 32 -117 62t-97 72.5t-72 96.5t-23 117q1 74 38 133.5t96 95t127 54t138 20.5q93 1 176.5 -19.5t135.5 -50.5v-215h-84 l-43 113q-68 72 -174 72q-101 0 -162 -41.5t-64 -126.5q-1 -22 5.5 -42.5t16 -36t29 -32.5t34.5 -28.5t44 -27t46.5 -24t52 -25t51.5 -24.5q8 -4 25 -12q134 -63 187 -107q103 -84 103 -209q0 -110 -59.5 -188.5t-156.5 -116t-222 -37.5q-197 0 -348 86v230z" />
<glyph unicode="t" horiz-adv-x="862" d="M453 1386v-268h335v-125h-335v-504q0 -85 1 -135.5t5.5 -97.5t11.5 -70t21 -40.5t31.5 -23t45.5 -5.5q48 0 113 16.5t90 32.5l33 -88q-43 -46 -138 -74.5t-173 -28.5q-230 0 -230 287v731h-151v74q21 5 51 12.5t41.5 10.5t28.5 9.5t24.5 13.5t16.5 18t16 28 q13 34 35.5 116.5t27.5 110.5h99z" />
<glyph unicode="u" horiz-adv-x="1292" d="M213 977l-102 31v75l258 56l34 -19v-688q0 -172 44 -243.5t171 -71.5q80 0 161.5 38t115.5 74v740l-125 30v82l287 58l26 -17v-1036h121v-78q-31 -16 -86.5 -29.5t-99.5 -13.5q-105 0 -105 86v82q-176 -153 -368 -153q-66 0 -117 13t-85.5 33t-59 57.5t-37.5 71t-20.5 91 t-9.5 100.5t-3 115v516z" />
<glyph unicode="v" horiz-adv-x="1187" d="M98 995l-96 19v104h440v-104l-123 -21l220 -534l94 -287l92 274l190 547l-129 21v104h400v-104l-107 -23l-405 -1016h-135z" />
<glyph unicode="w" horiz-adv-x="1691" d="M104 995l-102 19v104h436v-104l-139 -23l188 -608l56 -217l45 215l188 737h172l195 -735l55 -217l55 209l156 618l-123 21v104h404v-104l-125 -23l-297 -1016h-176l-218 762l-24 150l-39 -150l-201 -762h-166z" />
<glyph unicode="x" horiz-adv-x="1167" d="M6 86l150 20l333 437l-348 452l-137 19v104h502v-104l-139 -19l194 -286l47 -74l41 70l199 292l-143 17v104h450v-104l-154 -21l-325 -426l356 -463l131 -18v-86h-493v86l137 20l-252 357l-43 -76l-197 -281l183 -20v-86h-492v86z" />
<glyph unicode="y" horiz-adv-x="1150" d="M150 -340q38 -10 79 -10q218 0 322 350h-43l-402 995l-104 19v104h463v-104l-143 -21l233 -671l68 -203l59 203l203 673l-158 19v104h432v-104l-110 -17q-326 -946 -363 -1036q-83 -213 -167.5 -325.5t-201.5 -141.5q-36 -8 -88 -8q-58 0 -79 14v160z" />
<glyph unicode="z" horiz-adv-x="1077" d="M983 1118l27 -82l-586 -809l-100 -129l530 23l64 168h102l-16 -289h-883l-33 82l70 94l538 752l82 96l-489 -14l-62 -185h-92v293h848z" />
<glyph unicode="{" horiz-adv-x="1034" d="M330 580q0 37 -75 73.5t-175 61.5v125q250 60 250 127v520q0 150 37 200t153 50q31 0 59 -2t58.5 -7.5t47 -9t52.5 -12.5t47 -12v-86h-290v-637q0 -34 -12.5 -60t-50 -51t-58 -36t-82.5 -39q-13 -6 -19 -9q52 -23 84.5 -40.5t68 -42.5t52.5 -54.5t17 -63.5v-634h290v-88 q-56 -15 -84.5 -22t-78.5 -14t-101 -7q-116 0 -153 50t-37 199v521z" />
<glyph unicode="|" horiz-adv-x="872" d="M358 1780h172v-1966h-172v1966z" />
<glyph unicode="}" horiz-adv-x="958" d="M465 -59v634q0 29 13 55t31 44.5t50.5 38.5t58 32.5t66.5 30.5q-119 57 -149 78q-70 48 -70 117v637h-291l-2 86q14 3 48.5 11.5t52.5 12.5t47.5 9.5t58 7.5t59.5 2q116 0 153.5 -50.5t37.5 -199.5v-520q0 -67 250 -127v-125q-100 -25 -175 -61.5t-75 -73.5v-521 q0 -149 -37.5 -199t-153.5 -50q-51 0 -101.5 7t-78 13.5t-86.5 22.5l2 88h291z" />
<glyph unicode="~" horiz-adv-x="1257" d="M150 868q46 80 141.5 135.5t200.5 55.5q52 0 100.5 -26.5t79.5 -57.5t71.5 -57.5t79.5 -26.5q104 0 211 102l74 -88q-48 -79 -143 -134.5t-199 -55.5q-54 0 -103 26.5t-79.5 57.5t-71.5 57.5t-80 26.5q-43 0 -86 -18.5t-68 -37.5t-57 -49z" />
<glyph horiz-adv-x="0" />
<glyph unicode="&#xa1;" horiz-adv-x="712" d="M371 1438q63 0 95 -34.5t32 -88.5q0 -64 -45 -105t-105 -41q-52 0 -89.5 33.5t-37.5 89.5q0 61 46.5 103.5t103.5 42.5zM406 922l65 -1330h-256l74 1330h117z" />
<glyph unicode="&#xa2;" horiz-adv-x="1116" d="M514 -12q-185 32 -285.5 180t-103.5 371q-1 247 132.5 409.5t342.5 194.5l14 219h123l-12 -213q74 -2 137.5 -15t95.5 -34v-242h-94l-51 127q-58 47 -164 47q-69 0 -129 -25.5t-107.5 -74t-75 -127t-28.5 -178.5q-1 -131 31.5 -233t87 -160t117.5 -87.5t129 -29.5 q78 0 161 17t126 42l34 -88q-53 -46 -150 -74.5t-206 -33.5l-10 -195h-125z" />
<glyph unicode="&#xa3;" horiz-adv-x="1441" d="M915 1567q91 0 154.5 -16.5t118.5 -63.5l-96 -184q-7 11 -27 31t-54.5 46.5t-86 45t-105.5 18.5q-211 0 -211 -455v-115h328v-147h-326v-31q0 -198 -23.5 -297t-88.5 -213q45 -2 159.5 -50t176.5 -58q75 -15 131 -7.5t94 25.5t61 50t33 66t10 73q0 95 -71 149l92 176 q68 -29 109.5 -91t52.5 -146q1 -28 3.5 -60.5t-6 -70t-20.5 -73.5t-40 -70.5t-64.5 -62t-93.5 -46.5t-128 -25q-95 -9 -183.5 3t-150.5 35t-113.5 47t-90.5 39t-62 11q-95 -131 -211 -131q-38 0 -68 19.5t-30 72.5q0 60 84.5 111t212.5 45q33 72 33 258v252h-180v147h180 v113q0 89 22.5 175t66.5 158.5t103.5 128t138.5 87t166 31.5z" />
<glyph unicode="&#xa4;" horiz-adv-x="1435" d="M309 1182l183 -183q100 68 219 68q134 0 233 -80l182 180l84 -86l-184 -184q64 -92 64 -207q0 -123 -72 -221l180 -180l-86 -86l-180 180q-101 -72 -221 -72q-117 0 -217 68l-181 -180l-86 84l179 178q-76 102 -76 229t73 225l-178 181zM711 938q-98 0 -168 -73t-70 -175 t70 -175t168 -73t166.5 73t68.5 175t-68.5 175t-166.5 73z" />
<glyph unicode="&#xa5;" horiz-adv-x="1406" d="M414 86l192 29v262h-424v127h424v229h-424v127h361l-381 578l-129 16v98h502v-98l-150 -16l285 -463l49 -115h26l62 123q36 62 124 217.5t136 237.5l-149 16v98h456v-98l-141 -29l-361 -565h338v-127h-407v-229h407v-127h-407v-260l203 -31v-86h-592v86z" />
<glyph unicode="&#xa6;" horiz-adv-x="872" d="M358 1780h172v-893h-172v893zM358 709h172v-895h-172v895z" />
<glyph unicode="&#xa7;" horiz-adv-x="1327" d="M692 1774q135 0 237 -23.5t154 -54.5v-277h-86l-77 193q-24 28 -91 43.5t-147 15.5q-35 0 -73 -8.5t-78 -29.5t-71.5 -51.5t-52 -78.5t-20.5 -106q0 -54 26.5 -100t71 -80.5t102 -66t121.5 -61t128 -60t121.5 -67.5t102 -80t71 -101t26.5 -126q0 -86 -25 -172t-67 -141 q78 -95 78 -207q0 -106 -41.5 -185.5t-114.5 -125.5t-163 -68t-197 -22q-140 0 -274.5 27.5t-182.5 56.5v321h86l66 -192q61 -69 139.5 -89t191.5 -20q43 0 84 7.5t81.5 25.5t70.5 44.5t48.5 68t18.5 92.5q0 56 -26.5 105t-70.5 85.5t-102 69.5t-121.5 63.5t-127 62 t-121.5 69t-102 80.5t-70.5 102t-26.5 127q0 78 30 161.5t77 135.5q-90 93 -90 221q0 83 31.5 153.5t82.5 117.5t115.5 80.5t130 49t127.5 15.5zM410 1044q-37 -79 -37 -165q0 -64 35.5 -116.5t101 -94t132.5 -73.5t155.5 -74.5t144.5 -78.5q29 76 29 154q0 66 -35 120 t-99 97t-129.5 76t-154 76.5t-143.5 78.5z" />
<glyph unicode="&#xa8;" horiz-adv-x="1062" d="M287 1382q-52 0 -88.5 32t-36.5 87q0 61 45.5 103.5t101.5 42.5q63 0 95 -34.5t32 -88.5q0 -63 -45 -102.5t-104 -39.5zM752 1382q-52 0 -87.5 32t-35.5 87q0 61 45 103.5t100 42.5q63 0 95 -34.5t32 -88.5q0 -63 -44.5 -102.5t-104.5 -39.5z" />
<glyph unicode="&#xa9;" horiz-adv-x="2041" d="M1022 1921q169 0 324.5 -68.5t269 -183.5t181 -272.5t67.5 -327.5q0 -169 -67.5 -326t-180.5 -271.5t-269 -183.5t-325 -69q-170 0 -326.5 69t-269.5 183.5t-180.5 271.5t-67.5 326q0 171 67.5 328t180.5 272t269.5 183.5t326.5 68.5zM1022 1800q-146 0 -279 -59 t-228 -157.5t-151.5 -233.5t-56.5 -281q0 -145 56.5 -279.5t151.5 -233t228 -157.5t279 -59q144 0 276 59t227 157.5t151.5 233t56.5 279.5q0 196 -95 364t-259 267.5t-357 99.5zM1030 1573q81 7 180 -5t133 -52v-211h-114l-49 127q-20 11 -33.5 16.5t-48 10.5t-86.5 5 q-116 0 -180 -99.5t-64 -262.5q0 -167 95 -274t239 -107q63 0 131.5 17.5t91.5 39.5l29 -71q-45 -52 -133.5 -87.5t-190.5 -35.5q-215 0 -330.5 131.5t-115.5 345.5q0 102 40.5 196t104.5 160t143.5 108t157.5 48z" />
<glyph unicode="&#xaa;" horiz-adv-x="964" d="M467 1593q63 0 108 -6t90 -24t72.5 -50t44.5 -86.5t17 -130.5l-2 -456h88v-76q-30 -12 -81 -23.5t-85 -11.5q-55 0 -72.5 24.5t-17.5 86.5q-116 -105 -305 -105q-36 0 -76.5 14.5t-79 42.5t-63.5 76t-25 107q0 70 30.5 122t79.5 83t122.5 49.5t147 24.5t165.5 6v24 q0 62 -14.5 100.5t-46.5 56.5t-65.5 23.5t-88.5 5.5q-77 0 -144 -16.5t-102 -44.5l-39 88q44 40 144.5 68t197.5 28zM623 1167q-82 0 -144 -7.5t-111.5 -25t-75.5 -49t-26 -77.5q0 -72 38 -113t95 -41t123.5 18.5t100.5 49.5v245z" />
<glyph unicode="&#xab;" horiz-adv-x="1896" d="M246 692l647 383l51 -86l-514 -375l514 -360l-51 -90l-647 364v164zM952 692l650 383l51 -86l-514 -375l514 -360l-51 -90l-650 364v164z" />
<glyph unicode="&#xac;" horiz-adv-x="1232" d="M178 872h877v-530h-164v401h-713v129z" />
<glyph unicode="&#xad;" horiz-adv-x="1228" d="M178 874h885v-147h-885v147z" />
<glyph unicode="&#xae;" horiz-adv-x="2041" d="M1022 1921q169 0 324.5 -68.5t269 -183.5t181 -272.5t67.5 -327.5q0 -169 -67.5 -326t-180.5 -271.5t-269 -183.5t-325 -69q-170 0 -326.5 69t-269.5 183.5t-180.5 271.5t-67.5 326q0 171 67.5 328t180.5 272t269.5 183.5t326.5 68.5zM1022 1800q-146 0 -279 -59 t-228 -157.5t-151.5 -233.5t-56.5 -281q0 -145 56.5 -279.5t151.5 -233t228 -157.5t279 -59q144 0 276 59t227 157.5t151.5 233t56.5 279.5q0 196 -95 364t-259 267.5t-357 99.5zM1051 1561q171 0 259 -60t91 -176q0 -250 -260 -297q49 -27 87.5 -73t62.5 -90.5t48.5 -86 t58.5 -67t79 -25.5v-92h-158q-52 0 -88 34.5t-58.5 88t-45.5 110t-62.5 108.5t-93.5 75h-74v-310l90 -20v-86h-360v86l92 27v729l-92 22v98h159q53 -2 67 -1t72.5 3t125.5 3zM1014 1460q-71 0 -117 -10v-342q41 -8 133 -8q83 0 137 53.5t54 126.5q0 93 -55 136.5t-152 43.5z " />
<glyph unicode="&#xaf;" horiz-adv-x="884" d="M195 1591h530v-147h-530v147z" />
<glyph unicode="&#xb0;" horiz-adv-x="677" d="M338 1593q132 0 225.5 -93t93.5 -222q0 -131 -93.5 -224t-225.5 -93q-131 0 -224.5 93.5t-93.5 223.5q0 129 94 222t224 93zM338 1481q-87 0 -144 -58t-57 -145q0 -84 58.5 -143.5t142.5 -59.5q88 0 144.5 57.5t56.5 145.5q0 84 -58.5 143.5t-142.5 59.5z" />
<glyph unicode="&#xb1;" horiz-adv-x="1269" d="M557 561l6 166l-166 -6h-219v153h219l166 -12l-6 170v228h156v-228l-11 -170l138 12h252v-153h-252l-138 6l11 -166v-239h-156v239zM190 176h885v-145h-885v145z" />
<glyph unicode="&#xb2;" horiz-adv-x="1255" d="M143 836q55 27 125.5 67.5t162.5 102.5t166 123.5t125.5 132t51.5 127.5q0 100 -62 145t-157 45q-89 0 -184.5 -45t-153.5 -119l-74 88q54 84 182 155t273 71q93 0 165.5 -19.5t114.5 -49t69 -68.5t36.5 -73t9.5 -67q0 -74 -32 -144t-83.5 -127t-136.5 -119t-168 -111 t-202 -111l520 39l119 139l102 -41l-55 -256h-871z" />
<glyph unicode="&#xb3;" d="M225 784q58 -23 138 -38t143 -15q142 3 216.5 62t74.5 153q0 84 -59.5 127.5t-155.5 46.5l-70 -14l-127 -27v121q157 30 243.5 97.5t86.5 166.5q0 45 -29.5 74t-68.5 39t-87 10q-68 0 -154 -27.5t-138 -64.5l-50 90q72 56 192 93.5t218 37.5q145 0 231 -73t86 -175 q0 -182 -227 -266q68 3 123.5 -14.5t88 -46.5t54.5 -67t30.5 -72t8.5 -64q0 -144 -124.5 -238t-338.5 -94q-64 0 -149.5 18t-155.5 50v110z" />
<glyph unicode="&#xb4;" horiz-adv-x="884" d="M221 1395l295 385l146 -150q-54 -83 -168.5 -163t-219.5 -128z" />
<glyph unicode="&#xb6;" horiz-adv-x="1345" d="M635 1573q51 0 226.5 -10t213.5 -11h172v-100l-172 -33v-1304l148 -29v-86h-318l-2 1419h-194v-1419h-367v86l201 29v561q-215 0 -319.5 109t-104.5 341q0 205 129 326t387 121z" />
<glyph unicode="&#xb7;" horiz-adv-x="706" d="M365 981q63 0 95 -34.5t32 -90.5q0 -63 -45.5 -103t-104.5 -40q-52 0 -89.5 33.5t-37.5 89.5q0 61 46.5 103t103.5 42z" />
<glyph unicode="&#xb8;" horiz-adv-x="614" d="M334 0q-11 -58 -4 -125q126 0 190 -57t64 -131q0 -97 -69.5 -152t-182.5 -61q-24 -3 -53.5 -1.5t-42 1.5t-33 4t-27 5t-23 5.5t-20.5 5.5l2 100q54 -14 113 -14q67 0 103 21.5t36 89.5q0 46 -38.5 73t-117.5 27q-9 0 -28.5 -2t-20.5 -2q0 88 35 213h117z" />
<glyph unicode="&#xb9;" horiz-adv-x="1085" d="M215 805l272 26v654q-45 -9 -136 -26.5t-136 -26.5l-20 98q92 28 246.5 96.5t189.5 97.5l51 -16l-2 -879l258 -24v-86h-723v86z" />
<glyph unicode="&#xba;" horiz-adv-x="997" d="M512 1593q185 0 292 -118t105 -320q-1 -87 -28 -159t-69.5 -119.5t-97.5 -80t-110.5 -47t-111.5 -14.5q-175 0 -289 115t-111 315q2 109 41.5 194.5t101.5 134.5t133 74t144 25zM502 1491q-213 -6 -213 -315q0 -151 58 -244.5t140 -93.5q57 0 96 13t70 46t45.5 94 t14.5 154q0 156 -57 251.5t-154 94.5z" />
<glyph unicode="&#xbb;" horiz-adv-x="1896" d="M246 248l512 375l-512 360l51 92l647 -364v-166l-647 -381zM1466 623l-512 360l52 92l647 -364v-166l-647 -381l-52 84z" />
<glyph unicode="&#xbc;" horiz-adv-x="2625" d="M1571 1880l131 -43l-774 -2179l-131 43zM246 805l270 26v654q-45 -9 -135 -26.5t-135 -26.5l-21 98q92 28 247 96.5t190 97.5l51 -16l-2 -879l258 -24v-86h-723v86zM1985 1112l67 2l111 -102l-512 -625l-72 -96l408 33l2 251l176 21v-258l272 20l4 -170h-276v-364h-180 l2 364h-525l-53 95z" />
<glyph unicode="&#xbd;" horiz-adv-x="2625" d="M1571 1880l131 -37l-774 -2185l-131 31zM246 805l270 26v654q-45 -9 -135 -26.5t-135 -26.5l-21 98q92 28 247 96.5t190 97.5l51 -16l-2 -879l258 -24v-86h-723v86zM1464 115q44 22 100 53.5t130 77.5t142 98t127 106t94.5 111t35.5 105q0 100 -61.5 146t-157.5 46 q-89 0 -183.5 -44.5t-154.5 -119.5l-74 86q57 86 184 157t273 71q93 0 165 -19.5t114.5 -49.5t69.5 -68.5t36.5 -72.5t9.5 -67q0 -63 -20.5 -121t-63 -111t-93.5 -99.5t-127.5 -96.5t-147.5 -91t-170 -93l518 37l119 141l104 -43l-57 -256h-869z" />
<glyph unicode="&#xbe;" horiz-adv-x="2625" d="M1571 1880l131 -37l-774 -2185l-131 31zM225 784q58 -23 138 -38t143 -15q142 3 216.5 62t74.5 153q0 84 -59.5 127.5t-155.5 46.5l-70 -14l-127 -27v121q157 30 243.5 97.5t86.5 166.5q0 45 -29.5 74t-68.5 39t-87 10q-68 0 -154 -27.5t-138 -64.5l-50 90 q72 56 192 93.5t218 37.5q145 0 231 -73t86 -175q0 -182 -227 -266q68 3 123.5 -14.5t88 -46.5t54.5 -67t30.5 -72t8.5 -64q0 -144 -124.5 -238t-338.5 -94q-64 0 -149.5 18t-155.5 50v110zM1985 1112l67 2l111 -102l-512 -625l-72 -96l408 33l2 251l176 21v-258l272 20 l4 -170h-276v-364h-180l2 364h-525l-53 95z" />
<glyph unicode="&#xbf;" horiz-adv-x="1011" d="M469 1440q63 0 95 -35t32 -90q0 -63 -46 -104.5t-104 -41.5q-52 0 -89.5 34t-37.5 89q0 61 47 104.5t103 43.5zM440 928h107q57 -44 119.5 -162t62.5 -186q-1 -44 -50 -86t-105.5 -68.5t-140 -62.5t-118.5 -54q-42 -22 -57.5 -36.5t-15.5 -39.5q-4 -125 63 -235.5 t179.5 -175t238.5 -64.5q110 0 166 23v-154q-17 -20 -73 -32.5t-118 -12.5q-131 0 -237 36t-174 93.5t-114 134t-65.5 153.5t-19.5 155q0 88 20 126.5t103 86.5q38 22 109.5 57.5t111.5 56.5t73.5 55t33.5 70q0 29 -5.5 60t-17.5 67t-21 60.5t-28 69.5t-27 65z" />
<glyph unicode="&#xc0;" horiz-adv-x="1492" d="M760 1608q-192 31 -400 164l148 149l305 -260zM2 86l143 29l521 1437h168l497 -1437l160 -29v-86h-528v86l165 29l-106 321h-600l-109 -321l166 -29v-86h-477v86zM981 555l-162 487l-94 301l-264 -788h520z" />
<glyph unicode="&#xc1;" horiz-adv-x="1492" d="M686 1661l307 260l146 -149q-208 -133 -400 -164zM2 86l143 29l521 1437h168l497 -1437l160 -29v-86h-528v86l165 29l-106 321h-600l-109 -321l166 -29v-86h-477v86zM981 555l-162 487l-94 301l-264 -788h520z" />
<glyph unicode="&#xc2;" horiz-adv-x="1492" d="M401 1663l252 258h191l256 -256l-86 -49l-264 168l-271 -168zM2 86l143 29l521 1437h168l497 -1437l160 -29v-86h-528v86l165 29l-106 321h-600l-109 -321l166 -29v-86h-477v86zM981 555l-162 487l-94 301l-264 -788h520z" />
<glyph unicode="&#xc3;" horiz-adv-x="1492" d="M350 1749q39 71 119.5 121.5t159.5 50.5q43 0 81 -20t60.5 -43.5t54.5 -43.5t64 -20q102 0 184 82l51 -74q-37 -71 -117 -121.5t-159 -50.5q-44 0 -82 20.5t-60.5 45t-54 45t-63.5 20.5q-49 0 -100.5 -25.5t-84.5 -58.5zM2 86l143 29l521 1437h168l497 -1437l160 -29v-86 h-528v86l165 29l-106 321h-600l-109 -321l166 -29v-86h-477v86zM981 555l-162 487l-94 301l-264 -788h520z" />
<glyph unicode="&#xc4;" horiz-adv-x="1492" d="M524 1921q63 0 95 -35t32 -90q0 -64 -44.5 -104.5t-104.5 -40.5q-52 0 -88.5 34t-36.5 89q0 61 46 104t101 43zM991 1921q63 0 95 -35t32 -90q0 -63 -45.5 -104t-103.5 -41q-52 0 -89.5 34t-37.5 89q0 61 46.5 104t102.5 43zM834 1552l497 -1437l160 -29v-86h-528v86 l165 29l-106 321h-600l-109 -321l166 -29v-86h-477v86l143 29l521 1437h168zM725 1343l-264 -788h520l-162 487z" />
<glyph unicode="&#xc5;" horiz-adv-x="1492" d="M748 1921q103 0 177 -69.5t74 -168.5q0 -69 -37.5 -124.5t-101.5 -85.5l471 -1358l160 -29v-86h-528v86l165 29l-106 321h-600l-109 -321l166 -29v-86h-477v86l143 29l492 1355q-64 30 -102.5 86t-38.5 127q0 99 73.5 168.5t178.5 69.5zM748 1808q-56 0 -95 -36.5 t-39 -90.5q0 -55 39 -91t95 -36q55 0 94 36t39 91q0 53 -39 90t-94 37zM725 1343l-264 -788h520l-162 487z" />
<glyph unicode="&#xc6;" horiz-adv-x="1939" d="M2 86l141 29l584 1437h971l28 -284l-100 -2l-45 170l-610 12l172 -580l387 6l29 156h92v-420h-92l-29 144l-354 4l192 -647l322 16l100 207l88 -43l-45 -291h-848v86l164 29l-105 342h-606l-127 -342l168 -29v-86h-477v86zM1008 573l-189 613l-35 190l-301 -803h525z" />
<glyph unicode="&#xc7;" horiz-adv-x="1409" d="M893 1567q66 0 135 -9t110.5 -19t98 -25t72.5 -19l-17 -289h-104l-53 166q-65 43 -133.5 60.5t-172.5 17.5q-108 0 -204.5 -45t-171 -127.5t-118.5 -210t-44 -281.5q0 -115 22.5 -219.5t68.5 -193.5t111 -155t156.5 -103t198.5 -37q227 0 319 119l58 153h86v-287 q-32 -2 -97 -23t-160 -42.5t-206 -24.5q-3 -49 0 -98q127 0 191.5 -57t64.5 -131q0 -96 -70.5 -151.5t-183.5 -61.5q-47 1 -61.5 -1.5t-46.5 3t-35.5 5.5t-28.5 7l-25 6v100q54 -14 115 -14q67 0 103 21.5t36 89.5q0 46 -39 73t-118 27q-8 0 -28.5 -2t-21.5 -2q3 87 29 188 q-187 16 -333 114t-228 263.5t-82 372.5q0 151 42.5 284.5t118.5 234.5t177 174.5t221 111t248 37.5z" />
<glyph unicode="&#xc8;" horiz-adv-x="1318" d="M737 1608q-188 30 -397 164l145 149l306 -260zM102 86l168 29v1323l-164 16v98h1039l29 -284h-111l-45 168l-553 12v-584l373 8l28 156h103v-430h-103l-28 154l-373 6v-649l594 18l100 207l96 -25l-45 -309h-1108v86z" />
<glyph unicode="&#xc9;" horiz-adv-x="1318" d="M666 1661l305 260l145 -149q-208 -133 -397 -164zM102 86l168 29v1323l-164 16v98h1039l29 -284h-111l-45 168l-553 12v-584l373 8l28 156h103v-430h-103l-28 154l-373 6v-649l594 18l100 207l96 -25l-45 -309h-1108v86z" />
<glyph unicode="&#xca;" horiz-adv-x="1318" d="M379 1663l254 258h188l256 -256l-86 -49l-264 168l-270 -168zM102 86l168 29v1323l-164 16v98h1039l29 -284h-111l-45 168l-553 12v-584l373 8l28 156h103v-430h-103l-28 154l-373 6v-649l594 18l100 207l96 -25l-45 -309h-1108v86z" />
<glyph unicode="&#xcb;" horiz-adv-x="1318" d="M504 1921q63 0 95 -35t32 -90q0 -63 -46 -104t-106 -41q-50 0 -87.5 34t-37.5 89q0 61 47 104t103 43zM969 1921q63 0 95 -35t32 -90q0 -64 -45 -104.5t-105 -40.5q-52 0 -89.5 34t-37.5 89q0 61 47 104t103 43zM1145 1552l29 -284h-111l-45 168l-553 12v-584l373 8 l28 156h103v-430h-103l-28 154l-373 6v-649l594 18l100 207l96 -25l-45 -309h-1108v86l168 29v1323l-164 16v98h1039z" />
<glyph unicode="&#xcc;" horiz-adv-x="763" d="M395 1608q-188 30 -397 164l145 149l306 -260zM104 86l181 29v1323l-176 16v98h542v-98l-172 -16v-1323l183 -29v-86h-558v86z" />
<glyph unicode="&#xcd;" horiz-adv-x="763" d="M324 1661l305 260l145 -149q-208 -133 -397 -164zM104 86l181 29v1323l-176 16v98h542v-98l-172 -16v-1323l183 -29v-86h-558v86z" />
<glyph unicode="&#xce;" horiz-adv-x="763" d="M37 1663l254 258h188l256 -256l-86 -49l-264 168l-270 -168zM104 86l181 29v1323l-176 16v98h542v-98l-172 -16v-1323l183 -29v-86h-558v86z" />
<glyph unicode="&#xcf;" horiz-adv-x="763" d="M162 1921q63 0 95 -35t32 -90q0 -63 -46 -104t-106 -41q-50 0 -87.5 34t-37.5 89q0 61 47 104t103 43zM627 1921q63 0 95 -35t32 -90q0 -64 -45 -104.5t-105 -40.5q-52 0 -89.5 34t-37.5 89q0 61 47 104t103 43zM651 1552v-98l-172 -16v-1323l183 -29v-86h-558v86l181 29 v1323l-176 16v98h542z" />
<glyph unicode="&#xd0;" horiz-adv-x="1593" d="M106 86l168 29v610h-176v145h176v568l-163 16v98h262q95 0 207.5 7.5t169.5 7.5q377 3 565 -194t188 -556q0 -192 -61 -351t-167.5 -263.5t-251 -160.5t-310.5 -52q-245 10 -336 10h-271v86zM469 131q127 -34 279 -31q89 2 169.5 28.5t150.5 80t121 130.5t80 187t29 242 q0 345 -161.5 520t-448.5 166q-123 -2 -219 -18v-566h258v-145h-258v-594z" />
<glyph unicode="&#xd1;" horiz-adv-x="1662" d="M432 1749q39 71 118.5 121.5t158.5 50.5q44 0 82.5 -20t61 -43.5t53.5 -43.5t63 -20q102 0 184 82l53 -74q-39 -71 -119 -121.5t-157 -50.5q-36 0 -67.5 13.5t-53.5 33t-43 38.5t-45.5 32.5t-50.5 13.5q-49 0 -100.5 -25.5t-86.5 -58.5zM1585 1552v-106l-166 -19v-1427 h-205l-659 1040l-137 279v-1204l194 -29v-86h-508v86l170 29v1312l-163 17v108h354l670 -1093l141 -275v1243l-164 19v106h473z" />
<glyph unicode="&#xd2;" horiz-adv-x="1554" d="M801 1608q-192 31 -400 164l146 149l307 -260zM827 1567q196 0 345 -102t225.5 -278.5t72.5 -398.5q-4 -189 -61.5 -344.5t-153 -258t-223 -158.5t-272.5 -56q-200 0 -353.5 99t-235 271.5t-81.5 389.5q0 265 106 460t281 290q158 86 350 86zM786 1460q-221 0 -351 -188 t-130 -518q0 -131 33.5 -252.5t94 -216t153.5 -151t205 -56.5q219 0 340.5 187t121.5 521q0 132 -30.5 252.5t-88 215t-147.5 150.5t-201 56z" />
<glyph unicode="&#xd3;" horiz-adv-x="1554" d="M1034 1921l146 -149q-208 -133 -400 -164l-53 53zM805 1567q204 6 357.5 -95t232.5 -279.5t75 -404.5q-4 -187 -60 -341t-149.5 -256.5t-218.5 -159.5t-268 -60q-207 -4 -365 97t-240.5 279.5t-78.5 404.5q4 187 61.5 340.5t154.5 255.5t225 158.5t274 60.5zM786 1460 q-221 0 -351 -188t-130 -518q0 -131 33.5 -252.5t94 -216t153.5 -151t205 -56.5q219 0 340.5 187t121.5 521q0 132 -30.5 252.5t-88 215t-147.5 150.5t-201 56z" />
<glyph unicode="&#xd4;" horiz-adv-x="1554" d="M885 1921l256 -256l-86 -49l-264 168l-271 -168l-78 47l252 258h191zM805 1567q204 6 357.5 -95t232.5 -279.5t75 -404.5q-4 -187 -60 -341t-149.5 -256.5t-218.5 -159.5t-268 -60q-207 -4 -365 97t-240.5 279.5t-78.5 404.5q4 187 61.5 340.5t154.5 255.5t225 158.5 t274 60.5zM786 1460q-221 0 -351 -188t-130 -518q0 -131 33.5 -252.5t94 -216t153.5 -151t205 -56.5q219 0 340.5 187t121.5 521q0 132 -30.5 252.5t-88 215t-147.5 150.5t-201 56z" />
<glyph unicode="&#xd5;" horiz-adv-x="1554" d="M391 1749q39 71 118.5 121.5t158.5 50.5q44 0 82.5 -20t61 -43.5t53.5 -43.5t63 -20q102 0 184 82l53 -74q-39 -71 -119 -121.5t-157 -50.5q-36 0 -67.5 13.5t-53.5 33t-43 38.5t-45.5 32.5t-50.5 13.5q-49 0 -100.5 -25.5t-86.5 -58.5zM827 1567q196 0 345 -102 t225.5 -278.5t72.5 -398.5q-4 -189 -61.5 -344.5t-153 -258t-223 -158.5t-272.5 -56q-200 0 -353.5 99t-235 271.5t-81.5 389.5q0 265 106 460t281 290q158 86 350 86zM786 1460q-221 0 -351 -188t-130 -518q0 -131 33.5 -252.5t94 -216t153.5 -151t205 -56.5 q219 0 340.5 187t121.5 521q0 132 -30.5 252.5t-88 215t-147.5 150.5t-201 56z" />
<glyph unicode="&#xd6;" horiz-adv-x="1554" d="M567 1921q63 0 95 -35t32 -90q0 -63 -45.5 -104t-103.5 -41q-52 0 -89.5 34t-37.5 89q0 61 46.5 104t102.5 43zM1032 1921q63 0 95 -35t32 -90q0 -64 -44.5 -104.5t-104.5 -40.5q-52 0 -88.5 34t-36.5 89q0 61 46 104t101 43zM827 1567q196 0 345 -102t225.5 -278.5 t72.5 -398.5q-4 -189 -61.5 -344.5t-153 -258t-223 -158.5t-272.5 -56q-200 0 -353.5 99t-235 271.5t-81.5 389.5q0 265 106 460t281 290q158 86 350 86zM786 1460q-221 0 -351 -188t-130 -518q0 -131 33.5 -252.5t94 -216t153.5 -151t205 -56.5q219 0 340.5 187t121.5 521 q0 132 -30.5 252.5t-88 215t-147.5 150.5t-201 56z" />
<glyph unicode="&#xd7;" horiz-adv-x="1241" d="M178 469l342 326l-342 327l117 123l326 -350l323 350l119 -123l-342 -327l342 -326l-119 -125l-323 350l-326 -350z" />
<glyph unicode="&#xd8;" horiz-adv-x="1554" d="M506 18q-198 82 -310 278.5t-106 455.5q4 187 61.5 340.5t154.5 255.5t225 158.5t274 60.5q112 5 229 -33l58 160l82 -35l-56 -162q169 -90 262 -278t90 -431q-4 -187 -60 -341t-149.5 -256.5t-218.5 -159.5t-268 -60q-91 0 -178 19l-66 -189l-88 33zM987 1405 q-93 55 -201 55q-221 0 -351 -188t-130 -518q0 -191 65.5 -353.5t184.5 -248.5zM639 106q66 -28 152 -28q219 0 340.5 187t121.5 521q0 170 -49 319t-141 241z" />
<glyph unicode="&#xd9;" horiz-adv-x="1576" d="M834 1608q-192 31 -400 164l146 149l307 -260zM1544 1552v-98l-158 -18v-750q0 -184 -42 -322t-119.5 -223.5t-182 -127.5t-235.5 -42q-169 0 -288 44t-191.5 133t-105 215t-32.5 299q0 130 1.5 388t1.5 388l-160 16v98h532v-98l-178 -18v-781q0 -132 22.5 -233 t61.5 -166t97.5 -106t124 -57.5t147.5 -16.5q397 0 397 610v750l-182 18v98h489z" />
<glyph unicode="&#xda;" horiz-adv-x="1576" d="M760 1661l305 260l147 -149q-95 -61 -201.5 -105t-197.5 -59zM1544 1552v-98l-158 -18v-750q0 -184 -42 -322t-119.5 -223.5t-182 -127.5t-235.5 -42q-169 0 -288 44t-191.5 133t-105 215t-32.5 299q0 130 1.5 388t1.5 388l-160 16v98h532v-98l-178 -18v-781 q0 -132 22.5 -233t61.5 -166t97.5 -106t124 -57.5t147.5 -16.5q397 0 397 610v750l-182 18v98h489z" />
<glyph unicode="&#xdb;" horiz-adv-x="1576" d="M915 1921l259 -256l-89 -49l-264 168l-268 -168l-80 47l254 258h188zM1544 1552v-98l-158 -18v-750q0 -184 -42 -322t-119.5 -223.5t-182 -127.5t-235.5 -42q-169 0 -288 44t-191.5 133t-105 215t-32.5 299q0 130 1.5 388t1.5 388l-160 16v98h532v-98l-178 -18v-781 q0 -132 22.5 -233t61.5 -166t97.5 -106t124 -57.5t147.5 -16.5q397 0 397 610v750l-182 18v98h489z" />
<glyph unicode="&#xdc;" horiz-adv-x="1576" d="M598 1921q63 0 95 -35t32 -90q0 -63 -45.5 -104t-104.5 -41q-52 0 -89 34t-37 89q0 61 46.5 104t102.5 43zM1063 1921q63 0 95 -35t32 -90q0 -64 -45 -104.5t-105 -40.5q-52 0 -88.5 34t-36.5 89q0 61 46.5 104t101.5 43zM1544 1552v-98l-158 -18v-750q0 -184 -42 -322 t-119.5 -223.5t-182 -127.5t-235.5 -42q-169 0 -288 44t-191.5 133t-105 215t-32.5 299q0 130 1.5 388t1.5 388l-160 16v98h532v-98l-178 -18v-781q0 -132 22.5 -233t61.5 -166t97.5 -106t124 -57.5t147.5 -16.5q397 0 397 610v750l-182 18v98h489z" />
<glyph unicode="&#xdd;" horiz-adv-x="1351" d="M647 1661l305 260l148 -149q-95 -61 -202 -105t-198 -59zM401 86l205 31v522l-479 799l-115 16v98h492v-98l-154 -16l318 -592l49 -103l45 105l287 588l-170 18v98h460v-98l-131 -27l-407 -790v-520l215 -31v-86h-615v86z" />
<glyph unicode="&#xde;" horiz-adv-x="1296" d="M86 86l188 29v1323l-174 16v98h543v-98l-174 -16v-207q18 2 59.5 6.5t68 7.5t64 5.5t68.5 2.5q239 0 380.5 -110t141.5 -320q0 -95 -32 -177t-87.5 -141t-129 -101t-158 -61t-172.5 -17q-37 1 -83.5 1.5t-73.5 1t-46 1.5v-215l268 -29v-86h-651v86zM469 438 q78 -12 201 -12q61 0 113 10t103.5 37t87 70t57.5 113.5t22 162.5q0 156 -105.5 243.5t-294.5 80.5q-66 -2 -184 -29v-676z" />
<glyph unicode="&#xdf;" horiz-adv-x="1333" d="M68 86l159 31v762q0 177 44.5 315.5t120.5 222.5t171 127t203 43q62 0 114.5 -14.5t98 -46.5t72 -92t26.5 -142q0 -67 -20.5 -125.5t-49.5 -100t-58 -80.5t-49.5 -85t-20.5 -96q0 -42 23.5 -75.5t61.5 -58t84 -48t92 -51t84 -61.5t61.5 -85.5t23.5 -116.5 q0 -84 -33.5 -149t-92.5 -103.5t-131.5 -57.5t-156.5 -19q-141 0 -221 18v172q151 -80 235 -80q94 0 154.5 42.5t60.5 143.5q0 57 -44.5 101.5t-107.5 76.5t-126 66t-107.5 87t-44.5 122q0 37 21.5 84t53 94t62.5 96.5t52.5 108.5t21.5 113q0 107 -48 175t-144 68 q-112 0 -175 -55.5t-91.5 -182t-28.5 -351.5v-879h-350v86z" />
<glyph unicode="&#xe0;" d="M713 1339q-105 49 -219 128.5t-168 162.5l147 150l293 -385zM563 1139q393 0 393 -367l-2 -686h127v-68q-81 -43 -188 -43q-71 0 -95 29.5t-24 104.5q-108 -134 -334 -134q-142 0 -232.5 89t-90.5 219q0 85 44 153t112 110t156.5 70t171.5 39t163 11v86q0 76 -20.5 128 t-60 78.5t-85.5 37t-109 10.5q-59 0 -140 -21t-150 -55l-37 90q67 56 189 87.5t212 31.5zM764 561q-72 0 -144 -11.5t-145 -37t-118.5 -76t-45.5 -119.5q0 -113 60.5 -164t177.5 -51q56 0 118 26.5t95 59.5z" />
<glyph unicode="&#xe1;" d="M442 1395l295 385l146 -150q-54 -83 -168.5 -163t-218.5 -128zM563 1139q393 0 393 -367l-2 -686h127v-68q-81 -43 -188 -43q-71 0 -95 29.5t-24 104.5q-108 -134 -334 -134q-142 0 -232.5 89t-90.5 219q0 85 44 153t112 110t156.5 70t171.5 39t163 11v86q0 76 -20.5 128 t-60 78.5t-85.5 37t-109 10.5q-59 0 -140 -21t-150 -55l-37 90q67 56 189 87.5t212 31.5zM764 561q-72 0 -144 -11.5t-145 -37t-118.5 -76t-45.5 -119.5q0 -113 60.5 -164t177.5 -51q56 0 118 26.5t95 59.5z" />
<glyph unicode="&#xe2;" d="M221 1380l273 396h190l262 -394l-86 -47l-272 269l-291 -269zM563 1139q393 0 393 -367l-2 -686h127v-68q-81 -43 -188 -43q-71 0 -95 29.5t-24 104.5q-108 -134 -334 -134q-142 0 -232.5 89t-90.5 219q0 85 44 153t112 110t156.5 70t171.5 39t163 11v86q0 76 -20.5 128 t-60 78.5t-85.5 37t-109 10.5q-59 0 -140 -21t-150 -55l-37 90q67 56 189 87.5t212 31.5zM764 561q-72 0 -144 -11.5t-145 -37t-118.5 -76t-45.5 -119.5q0 -113 60.5 -164t177.5 -51q56 0 118 26.5t95 59.5z" />
<glyph unicode="&#xe3;" d="M188 1491q39 70 120.5 122t158.5 52q36 0 66.5 -14t53 -33.5t43 -39.5t45.5 -34t52 -14q85 0 184 94l52 -72q-39 -72 -119 -124t-158 -52q-36 0 -67 14t-53.5 34t-43 39.5t-45 33.5t-51.5 14q-90 0 -184 -94zM563 1139q393 0 393 -367l-2 -686h127v-68q-81 -43 -188 -43 q-71 0 -95 29.5t-24 104.5q-108 -134 -334 -134q-142 0 -232.5 89t-90.5 219q0 85 44 153t112 110t156.5 70t171.5 39t163 11v86q0 76 -20.5 128t-60 78.5t-85.5 37t-109 10.5q-59 0 -140 -21t-150 -55l-37 90q67 56 189 87.5t212 31.5zM764 561q-72 0 -144 -11.5t-145 -37 t-118.5 -76t-45.5 -119.5q0 -113 60.5 -164t177.5 -51q56 0 118 26.5t95 59.5z" />
<glyph unicode="&#xe4;" d="M342 1382q-52 0 -88.5 32t-36.5 87q0 61 46 103.5t102 42.5q63 0 95 -34.5t32 -88.5q0 -63 -45.5 -102.5t-104.5 -39.5zM807 1382q-52 0 -87.5 32t-35.5 87q0 61 45 103.5t100 42.5q63 0 95 -34.5t32 -88.5q0 -63 -44.5 -102.5t-104.5 -39.5zM563 1139q393 0 393 -367 l-2 -686h127v-68q-81 -43 -188 -43q-71 0 -95 29.5t-24 104.5q-108 -134 -334 -134q-142 0 -232.5 89t-90.5 219q0 85 44 153t112 110t156.5 70t171.5 39t163 11v86q0 76 -20.5 128t-60 78.5t-85.5 37t-109 10.5q-59 0 -140 -21t-150 -55l-37 90q67 56 189 87.5t212 31.5z M764 561q-72 0 -144 -11.5t-145 -37t-118.5 -76t-45.5 -119.5q0 -113 60.5 -164t177.5 -51q56 0 118 26.5t95 59.5z" />
<glyph unicode="&#xe5;" d="M555 1802q104 0 178 -70.5t74 -170.5t-74 -170t-178 -70q-103 0 -177.5 70.5t-74.5 169.5t74.5 170t177.5 71zM555 1692q-55 0 -94 -39.5t-39 -93.5q0 -56 39 -95t94 -39t94 39t39 95q0 54 -39 93.5t-94 39.5zM563 1139q393 0 393 -367l-2 -686h127v-68q-81 -43 -188 -43 q-71 0 -95 29.5t-24 104.5q-108 -134 -334 -134q-142 0 -232.5 89t-90.5 219q0 85 44 153t112 110t156.5 70t171.5 39t163 11v86q0 76 -20.5 128t-60 78.5t-85.5 37t-109 10.5q-59 0 -140 -21t-150 -55l-37 90q67 56 189 87.5t212 31.5zM764 561q-72 0 -144 -11.5t-145 -37 t-118.5 -76t-45.5 -119.5q0 -113 60.5 -164t177.5 -51q56 0 118 26.5t95 59.5z" />
<glyph unicode="&#xe6;" horiz-adv-x="1800" d="M1317 1153q176 3 278.5 -108t110.5 -310q4 -78 -10 -190h-742q1 -84 18.5 -152.5t47 -114.5t66 -79t81 -51.5t87 -26.5t87.5 -8q78 0 171.5 18t136.5 41l37 -84q-56 -51 -178.5 -82t-241.5 -31q-258 0 -394 185q-59 -82 -174.5 -133.5t-257.5 -51.5q-153 0 -245.5 103 t-75.5 244q6 67 43.5 122t95 91.5t124 63t139 40.5t132.5 20.5t111 6.5v86q0 76 -20.5 128t-60 78.5t-85.5 37t-109 10.5q-59 0 -140 -21t-150 -55l-37 90q67 56 189 87.5t212 31.5q262 0 350 -162q157 170 404 176zM1264 1044q-123 0 -208.5 -93.5t-99.5 -286.5h547 q16 269 -104 348q-49 32 -135 32zM764 561q-72 0 -144 -11.5t-145 -37t-118.5 -76t-45.5 -119.5q0 -113 60.5 -164t177.5 -51q56 0 118 26.5t95 59.5z" />
<glyph unicode="&#xe7;" horiz-adv-x="1044" d="M635 -125q126 0 190 -57t64 -131q0 -97 -69.5 -152t-182.5 -61q-24 -3 -53.5 -1.5t-42 1.5t-33 4t-27 5t-23 5.5t-20.5 5.5l2 100q54 -14 113 -14q67 0 103 21.5t36 89.5q0 46 -38 73t-117 27q-9 0 -29 -2t-21 -2q0 82 31 197q-194 24 -302.5 175.5t-111.5 379.5 q-1 270 153.5 435.5t391.5 174.5q88 3 169 -10t120 -39v-242h-94l-51 127q-58 47 -164 47q-68 0 -128 -25.5t-107 -74t-75.5 -127t-29.5 -178.5q-1 -131 32 -233t87 -160t116.5 -87.5t128.5 -29.5q78 0 162 17t125 42l35 -88q-51 -45 -143.5 -73t-194.5 -33q-7 -62 -2 -107z " />
<glyph unicode="&#xe8;" d="M735 1339q-105 49 -219 128.5t-168 162.5l148 150l292 -385zM653 1153q176 3 279 -108t112 -310q2 -77 -12 -190h-741q0 -201 102 -316.5t287 -115.5q78 0 165.5 17.5t129.5 41.5l37 -84q-57 -51 -174 -82t-236 -31q-238 0 -370 156.5t-132 423.5q0 257 154 424.5 t399 173.5zM600 1044q-58 0 -108.5 -21.5t-93 -65.5t-70.5 -119t-35 -174h547q16 270 -105 348q-49 32 -135 32z" />
<glyph unicode="&#xe9;" d="M467 1395l295 385l145 -150q-54 -83 -168.5 -163t-218.5 -128zM653 1153q176 3 279 -108t112 -310q2 -77 -12 -190h-741q0 -201 102 -316.5t287 -115.5q78 0 165.5 17.5t129.5 41.5l37 -84q-57 -51 -174 -82t-236 -31q-238 0 -370 156.5t-132 423.5q0 257 154 424.5 t399 173.5zM600 1044q-58 0 -108.5 -21.5t-93 -65.5t-70.5 -119t-35 -174h547q16 270 -105 348q-49 32 -135 32z" />
<glyph unicode="&#xea;" d="M246 1380l272 396h191l262 -394l-86 -47l-273 269l-290 -269zM653 1153q176 3 279 -108t112 -310q2 -77 -12 -190h-741q0 -201 102 -316.5t287 -115.5q78 0 165.5 17.5t129.5 41.5l37 -84q-57 -51 -174 -82t-236 -31q-238 0 -370 156.5t-132 423.5q0 257 154 424.5 t399 173.5zM600 1044q-58 0 -108.5 -21.5t-93 -65.5t-70.5 -119t-35 -174h547q16 270 -105 348q-49 32 -135 32z" />
<glyph unicode="&#xeb;" d="M367 1382q-52 0 -88.5 32t-36.5 87q0 61 45.5 103.5t101.5 42.5q63 0 95 -34.5t32 -88.5q0 -63 -45 -102.5t-104 -39.5zM831 1382q-52 0 -87 32t-35 87q0 61 45 103.5t100 42.5q63 0 95 -34.5t32 -88.5q0 -63 -45 -102.5t-105 -39.5zM653 1153q176 3 279 -108t112 -310 q2 -77 -12 -190h-741q0 -201 102 -316.5t287 -115.5q78 0 165.5 17.5t129.5 41.5l37 -84q-57 -51 -174 -82t-236 -31q-238 0 -370 156.5t-132 423.5q0 257 154 424.5t399 173.5zM600 1044q-58 0 -108.5 -21.5t-93 -65.5t-70.5 -119t-35 -174h547q16 270 -105 348 q-49 32 -135 32z" />
<glyph unicode="&#xec;" horiz-adv-x="681" d="M479 1339q-105 49 -219 128.5t-168 162.5l146 150l294 -385zM113 86l170 20v820l-140 71v64l279 78l45 -21v-1012l162 -20v-86h-516v86z" />
<glyph unicode="&#xed;" horiz-adv-x="681" d="M211 1395l295 385l145 -150q-54 -83 -168.5 -163t-218.5 -128zM113 86l170 20v820l-140 71v64l279 78l45 -21v-1012l162 -20v-86h-516v86z" />
<glyph unicode="&#xee;" horiz-adv-x="681" d="M-12 1380l272 396h191l262 -394l-86 -47l-273 269l-291 -269zM113 86l170 20v820l-140 71v64l279 78l45 -21v-1012l162 -20v-86h-516v86z" />
<glyph unicode="&#xef;" horiz-adv-x="681" d="M106 1382q-52 0 -88 32t-36 87q0 61 45.5 103.5t101.5 42.5q63 0 95 -34.5t32 -88.5q0 -63 -45.5 -102.5t-104.5 -39.5zM571 1382q-52 0 -87 32t-35 87q0 61 45 103.5t100 42.5q63 0 95 -34.5t32 -88.5q0 -63 -45 -102.5t-105 -39.5zM113 86l170 20v820l-140 71v64 l279 78l45 -21v-1012l162 -20v-86h-516v86z" />
<glyph unicode="&#xf0;" horiz-adv-x="1230" d="M766 1724l102 -86l-163 -141q144 -109 241.5 -257.5t140.5 -303t43 -318.5q0 -153 -40.5 -276.5t-111.5 -202.5t-164 -121.5t-200 -44.5q-229 -6 -371.5 143.5t-142.5 385.5q0 128 41 230t112 167t163.5 99t199.5 34q76 0 166 -37.5t136 -91.5q-32 145 -115.5 272.5 t-196.5 227.5l-170 -146l-98 78l164 150q-102 66 -180 92l24 109q123 -42 246 -111l110 94zM614 924q-156 0 -230.5 -108t-74.5 -304q0 -116 35.5 -213t110.5 -159t176 -62q87 0 155.5 69.5t103 176.5t34.5 227q0 89 -6 117q-9 38 -29.5 78t-55.5 82t-92.5 69t-126.5 27z " />
<glyph unicode="&#xf1;" horiz-adv-x="1396" d="M354 1491q39 70 120.5 122t158.5 52q36 0 66.5 -14t53 -33.5t43 -39.5t45.5 -34t52 -14q85 0 184 94l51 -72q-39 -72 -118.5 -124t-157.5 -52q-36 0 -67 14t-53.5 34t-43 39.5t-45 33.5t-51.5 14q-90 0 -184 -94zM137 86l137 18v816l-143 77v64l266 78l45 -21v-141 q73 62 189.5 110.5t214.5 51.5q183 6 257.5 -103.5t74.5 -365.5v-566l159 -18v-86h-503v86l151 20v529q0 99 -9.5 162t-35.5 111t-74 68t-123 17q-135 -7 -274 -104v-783l147 -20v-86h-479v86z" />
<glyph unicode="&#xf2;" horiz-adv-x="1230" d="M760 1339q-105 49 -219 128.5t-168 162.5l147 150l293 -385zM635 1153q124 1 221 -44t157 -124.5t90.5 -184t29.5 -227.5q-1 -131 -43 -243.5t-112.5 -189.5t-165.5 -121t-202 -44t-194 33t-145 89.5t-97 134t-56 165.5t-16 185q2 130 47 238.5t118.5 180t168.5 111 t199 41.5zM623 1047q-164 3 -240 -114.5t-76 -340.5q0 -135 32.5 -245.5t105 -183.5t173.5 -75q165 -3 237.5 116.5t72.5 358.5q0 139 -31 245t-101 171.5t-173 67.5z" />
<glyph unicode="&#xf3;" horiz-adv-x="1230" d="M487 1395l295 385l146 -150q-54 -83 -168.5 -163t-218.5 -128zM635 1153q124 1 221 -44t157 -124.5t90.5 -184t29.5 -227.5q-1 -131 -43 -243.5t-112.5 -189.5t-165.5 -121t-202 -44t-194 33t-145 89.5t-97 134t-56 165.5t-16 185q2 130 47 238.5t118.5 180t168.5 111 t199 41.5zM623 1047q-164 3 -240 -114.5t-76 -340.5q0 -135 32.5 -245.5t105 -183.5t173.5 -75q165 -3 237.5 116.5t72.5 358.5q0 139 -31 245t-101 171.5t-173 67.5z" />
<glyph unicode="&#xf4;" horiz-adv-x="1230" d="M266 1380l273 396h190l262 -394l-86 -47l-272 269l-291 -269zM635 1153q124 1 221 -44t157 -124.5t90.5 -184t29.5 -227.5q-1 -131 -43 -243.5t-112.5 -189.5t-165.5 -121t-202 -44t-194 33t-145 89.5t-97 134t-56 165.5t-16 185q2 130 47 238.5t118.5 180t168.5 111 t199 41.5zM623 1047q-164 3 -240 -114.5t-76 -340.5q0 -135 32.5 -245.5t105 -183.5t173.5 -75q165 -3 237.5 116.5t72.5 358.5q0 139 -31 245t-101 171.5t-173 67.5z" />
<glyph unicode="&#xf5;" horiz-adv-x="1230" d="M233 1491q39 70 120.5 122t158.5 52q36 0 66.5 -14t53 -33.5t43 -39.5t45.5 -34t52 -14q85 0 184 94l52 -72q-39 -72 -119 -124t-158 -52q-36 0 -67 14t-53.5 34t-43 39.5t-45 33.5t-51.5 14q-90 0 -184 -94zM635 1153q124 1 221 -44t157 -124.5t90.5 -184t29.5 -227.5 q-1 -131 -43 -243.5t-112.5 -189.5t-165.5 -121t-202 -44t-194 33t-145 89.5t-97 134t-56 165.5t-16 185q2 130 47 238.5t118.5 180t168.5 111t199 41.5zM623 1047q-164 3 -240 -114.5t-76 -340.5q0 -135 32.5 -245.5t105 -183.5t173.5 -75q165 -3 237.5 116.5t72.5 358.5 q0 139 -31 245t-101 171.5t-173 67.5z" />
<glyph unicode="&#xf6;" horiz-adv-x="1230" d="M387 1382q-52 0 -88.5 32t-36.5 87q0 61 46 103.5t102 42.5q63 0 95 -34.5t32 -88.5q0 -63 -45.5 -102.5t-104.5 -39.5zM852 1382q-52 0 -87.5 32t-35.5 87q0 61 45 103.5t100 42.5q63 0 95 -34.5t32 -88.5q0 -63 -44.5 -102.5t-104.5 -39.5zM635 1153q124 1 221 -44 t157 -124.5t90.5 -184t29.5 -227.5q-1 -131 -43 -243.5t-112.5 -189.5t-165.5 -121t-202 -44t-194 33t-145 89.5t-97 134t-56 165.5t-16 185q2 130 47 238.5t118.5 180t168.5 111t199 41.5zM623 1047q-164 3 -240 -114.5t-76 -340.5q0 -135 32.5 -245.5t105 -183.5 t173.5 -75q165 -3 237.5 116.5t72.5 358.5q0 139 -31 245t-101 171.5t-173 67.5z" />
<glyph unicode="&#xf7;" horiz-adv-x="1280" d="M653 1321q63 0 95 -34.5t32 -90.5q0 -62 -45 -102.5t-104 -40.5q-52 0 -88.5 33.5t-36.5 89.5q0 61 46 103t101 42zM1104 874v-147h-926v147h926zM653 545q63 0 95 -35t32 -90q0 -64 -45 -105t-104 -41q-52 0 -88.5 34t-36.5 89q0 61 46 104.5t101 43.5z" />
<glyph unicode="&#xf8;" horiz-adv-x="1230" d="M389 18q-148 66 -219 217.5t-68 346.5q1 130 45.5 238.5t118 180t169 111t200.5 41.5q72 0 141 -16l58 166l79 -31l-55 -166q135 -64 205 -207t67 -326q-1 -174 -71 -311.5t-188.5 -212t-262.5 -74.5q-63 0 -133 17l-61 -187l-86 33zM731 1022q-52 25 -108 25 q-165 3 -240.5 -114t-75.5 -341q0 -134 34 -247.5t101 -180.5zM518 111q51 -23 100 -23q164 -3 236 116.5t72 358.5q0 285 -119 404z" />
<glyph unicode="&#xf9;" horiz-adv-x="1292" d="M745 1339q-105 49 -219 128.5t-168 162.5l146 150l295 -385zM213 977l-102 31v75l258 56l34 -19v-688q0 -172 44 -243.5t171 -71.5q80 0 161.5 38t115.5 74v740l-125 30v82l287 58l26 -17v-1036h121v-78q-31 -16 -86.5 -29.5t-99.5 -13.5q-105 0 -105 86v82 q-176 -153 -368 -153q-66 0 -117 13t-85.5 33t-59 57.5t-37.5 71t-20.5 91t-9.5 100.5t-3 115v516z" />
<glyph unicode="&#xfa;" horiz-adv-x="1292" d="M475 1395l295 385l145 -150q-54 -83 -168.5 -163t-218.5 -128zM213 977l-102 31v75l258 56l34 -19v-688q0 -172 44 -243.5t171 -71.5q80 0 161.5 38t115.5 74v740l-125 30v82l287 58l26 -17v-1036h121v-78q-31 -16 -86.5 -29.5t-99.5 -13.5q-105 0 -105 86v82 q-176 -153 -368 -153q-66 0 -117 13t-85.5 33t-59 57.5t-37.5 71t-20.5 91t-9.5 100.5t-3 115v516z" />
<glyph unicode="&#xfb;" horiz-adv-x="1292" d="M254 1380l272 396h191l262 -394l-86 -47l-272 269l-291 -269zM213 977l-102 31v75l258 56l34 -19v-688q0 -172 44 -243.5t171 -71.5q80 0 161.5 38t115.5 74v740l-125 30v82l287 58l26 -17v-1036h121v-78q-31 -16 -86.5 -29.5t-99.5 -13.5q-105 0 -105 86v82 q-176 -153 -368 -153q-66 0 -117 13t-85.5 33t-59 57.5t-37.5 71t-20.5 91t-9.5 100.5t-3 115v516z" />
<glyph unicode="&#xfc;" horiz-adv-x="1292" d="M377 1382q-52 0 -88.5 32t-36.5 87q0 61 45.5 103.5t101.5 42.5q63 0 95 -34.5t32 -88.5q0 -63 -45 -102.5t-104 -39.5zM842 1382q-52 0 -87.5 32t-35.5 87q0 61 45 103.5t100 42.5q63 0 95 -34.5t32 -88.5q0 -63 -44.5 -102.5t-104.5 -39.5zM213 977l-102 31v75l258 56 l34 -19v-688q0 -172 44 -243.5t171 -71.5q80 0 161.5 38t115.5 74v740l-125 30v82l287 58l26 -17v-1036h121v-78q-31 -16 -86.5 -29.5t-99.5 -13.5q-105 0 -105 86v82q-176 -153 -368 -153q-66 0 -117 13t-85.5 33t-59 57.5t-37.5 71t-20.5 91t-9.5 100.5t-3 115v516z" />
<glyph unicode="&#xfd;" horiz-adv-x="1150" d="M467 1395l295 385l145 -150q-54 -83 -168.5 -163t-218.5 -128zM150 -340q38 -10 79 -10q218 0 322 350h-43l-402 995l-104 19v104h463v-104l-143 -21l233 -671l68 -203l59 203l203 673l-158 19v104h432v-104l-110 -17q-326 -946 -363 -1036q-83 -213 -167.5 -325.5 t-201.5 -141.5q-36 -8 -88 -8q-58 0 -79 14v160z" />
<glyph unicode="&#xfe;" horiz-adv-x="1263" d="M354 1624l41 -16v-584q69 58 145 93.5t181 35.5q87 0 163.5 -30.5t140.5 -93.5t101 -172t37 -253q0 -127 -41.5 -242.5t-114 -202t-179 -137.5t-230.5 -51q-99 0 -209 21l4 -94l2 -304l197 -20v-86h-529v86l140 23v1869l-170 35v88zM641 1014q-79 0 -142.5 -28 t-103.5 -66v-762q14 -40 75 -60t151 -20q67 0 128 29.5t111.5 87t81 154t31.5 220.5q2 116 -25.5 204.5t-76.5 139.5t-107 76t-123 25z" />
<glyph unicode="&#xff;" horiz-adv-x="1150" d="M367 1382q-52 0 -88.5 32t-36.5 87q0 61 45.5 103.5t101.5 42.5q63 0 95 -34.5t32 -88.5q0 -63 -45 -102.5t-104 -39.5zM831 1382q-52 0 -87 32t-35 87q0 61 45 103.5t100 42.5q63 0 95 -34.5t32 -88.5q0 -63 -45 -102.5t-105 -39.5zM150 -340q38 -10 79 -10 q218 0 322 350h-43l-402 995l-104 19v104h463v-104l-143 -21l233 -671l68 -203l59 203l203 673l-158 19v104h432v-104l-110 -17q-326 -946 -363 -1036q-83 -213 -167.5 -325.5t-201.5 -141.5q-36 -8 -88 -8q-58 0 -79 14v160z" />
<glyph unicode="&#x152;" horiz-adv-x="2068" d="M805 1567q67 3 156 -15h946l28 -284h-108l-47 168l-529 12v-582l369 8l31 156h100v-430h-100l-31 154l-369 6v-651l561 18l101 207l96 -25l-45 -309h-1008q-84 -23 -182 -29q-207 -4 -365 97t-240.5 279.5t-78.5 404.5q4 187 61.5 340.5t154.5 255.5t225 158.5t274 60.5z M786 1460q-221 0 -351 -188t-130 -518q0 -131 33.5 -252.5t94 -216t153.5 -151t205 -56.5q153 0 268 98v1174q-116 110 -273 110z" />
<glyph unicode="&#x153;" horiz-adv-x="2027" d="M1538 1153q177 3 280 -108t111 -310q2 -77 -12 -190h-741q0 -201 102 -316.5t287 -115.5q78 0 165.5 17.5t129.5 41.5l36 -84q-57 -51 -173 -82t-234 -31q-157 0 -268.5 69.5t-171.5 197.5q-71 -125 -186.5 -196t-252.5 -71q-107 0 -194 33t-145 89.5t-97 134t-56 165.5 t-16 185q2 130 47 238.5t118.5 180t168.5 111t199 41.5q157 1 266.5 -69t167.5 -195q73 122 193.5 191t275.5 73zM623 1047q-164 3 -240 -114.5t-76 -340.5q0 -135 32.5 -245.5t105 -183.5t173.5 -75q165 -3 237.5 116.5t72.5 358.5q0 139 -31 245t-101 171.5t-173 67.5z M1487 1044q-59 0 -110 -21.5t-93.5 -65.5t-70.5 -119t-35 -174h546q16 270 -104 348q-49 32 -133 32z" />
<glyph unicode="&#x178;" horiz-adv-x="1351" d="M487 1921q63 0 95 -35t32 -90q0 -63 -45.5 -104t-103.5 -41q-52 0 -89.5 34t-37.5 89q0 61 46.5 104t102.5 43zM952 1921q63 0 95 -35t32 -90q0 -64 -44.5 -104.5t-104.5 -40.5q-52 0 -88.5 34t-36.5 89q0 61 46 104t101 43zM401 86l205 31v522l-479 799l-115 16v98h492 v-98l-154 -16l318 -592l49 -103l45 105l287 588l-170 18v98h460v-98l-131 -27l-407 -790v-520l215 -31v-86h-615v86z" />
<glyph unicode="&#x2c6;" horiz-adv-x="1062" d="M164 1380l272 396h191l262 -394l-86 -47l-273 269l-290 -269z" />
<glyph unicode="&#x2dc;" horiz-adv-x="886" d="M55 1491q39 70 120.5 122t158.5 52q36 0 66.5 -14t53 -33.5t43 -39.5t45.5 -34t52 -14q85 0 184 94l51 -72q-39 -72 -118.5 -124t-157.5 -52q-36 0 -67 14t-53.5 34t-43 39.5t-45 33.5t-51.5 14q-90 0 -184 -94z" />
<glyph unicode="&#x2000;" horiz-adv-x="960" />
<glyph unicode="&#x2001;" horiz-adv-x="1921" />
<glyph unicode="&#x2002;" horiz-adv-x="960" />
<glyph unicode="&#x2003;" horiz-adv-x="1921" />
<glyph unicode="&#x2004;" horiz-adv-x="640" />
<glyph unicode="&#x2005;" horiz-adv-x="480" />
<glyph unicode="&#x2006;" horiz-adv-x="320" />
<glyph unicode="&#x2007;" horiz-adv-x="320" />
<glyph unicode="&#x2008;" horiz-adv-x="240" />
<glyph unicode="&#x2009;" horiz-adv-x="384" />
<glyph unicode="&#x200a;" horiz-adv-x="106" />
<glyph unicode="&#x2010;" horiz-adv-x="1241" d="M178 874h885v-147h-885v147z" />
<glyph unicode="&#x2011;" horiz-adv-x="1241" d="M178 874h885v-147h-885v147z" />
<glyph unicode="&#x2012;" horiz-adv-x="1241" d="M178 874h885v-147h-885v147z" />
<glyph unicode="&#x2013;" horiz-adv-x="1380" d="M178 874h1024v-147h-1024v147z" />
<glyph unicode="&#x2014;" horiz-adv-x="2404" d="M178 874h2048v-147h-2048v147z" />
<glyph unicode="&#x2018;" horiz-adv-x="774" d="M418 940q-57 15 -101 52t-68 84.5t-36 94.5t-12 91q0 83 27 158t72.5 131.5t101 98.5t116.5 66l47 -59v-27q-72 -23 -126 -109.5t-54 -181.5q0 -76 43 -139.5t100 -69.5v-45z" />
<glyph unicode="&#x2019;" horiz-adv-x="774" d="M209 1020v27q72 23 125 109t53 181q0 76 -42.5 139.5t-98.5 69.5v45l110 146q74 -18 125.5 -76.5t71.5 -122t20 -123.5q0 -159 -94 -280.5t-223 -173.5z" />
<glyph unicode="&#x201a;" horiz-adv-x="774" d="M246 131l110 145q74 -19 125.5 -78t71.5 -121.5t20 -121.5q0 -160 -93.5 -281t-223.5 -176l-47 62v24q73 25 125.5 111t52.5 182q0 76 -42.5 139.5t-98.5 69.5v45z" />
<glyph unicode="&#x201c;" horiz-adv-x="1300" d="M418 940q-57 15 -101 52t-68 84.5t-36 94.5t-12 91q0 83 27 158t72.5 131.5t101 98.5t116.5 66l47 -59v-27q-72 -23 -126 -109.5t-54 -181.5q0 -76 43 -139.5t100 -69.5v-45zM944 940q-74 19 -125.5 77.5t-71.5 121.5t-20 123q0 160 93.5 281t223.5 173l48 -59v-27 q-72 -23 -125.5 -109.5t-53.5 -181.5q0 -76 43 -139.5t101 -69.5v-45z" />
<glyph unicode="&#x201d;" horiz-adv-x="1325" d="M209 1020v27q72 23 125 109t53 181q0 76 -42.5 139.5t-98.5 69.5v45l110 146q74 -18 125.5 -76.5t71.5 -122t20 -123.5q0 -159 -94 -280.5t-223 -173.5zM760 1020v27q72 23 125 109t53 181q0 76 -42.5 139.5t-98.5 69.5v45l110 146q75 -18 126.5 -77t71 -121.5 t19.5 -123.5q0 -159 -94 -280.5t-223 -173.5z" />
<glyph unicode="&#x201e;" horiz-adv-x="1325" d="M246 133l110 146q74 -18 125.5 -76.5t71.5 -122t20 -123.5q0 -159 -94 -281t-223 -174l-47 60v26q72 23 125 109.5t53 181.5q0 76 -42.5 140.5t-98.5 68.5v45zM797 133l110 146q75 -18 126.5 -77t71 -121.5t19.5 -123.5q0 -159 -94 -281t-223 -174l-47 60v26 q72 23 125 109.5t53 181.5q0 76 -42.5 140.5t-98.5 68.5v45z" />
<glyph unicode="&#x2022;" horiz-adv-x="841" d="M414 510q-84 0 -142.5 64t-52.5 151q6 89 68.5 151t144.5 62q84 0 143.5 -62.5t53.5 -150.5q-6 -90 -69.5 -152.5t-145.5 -62.5z" />
<glyph unicode="&#x2026;" horiz-adv-x="2117" d="M365 248q63 0 95 -35t32 -90q0 -63 -46 -104.5t-104 -41.5q-52 0 -89.5 34t-37.5 89q0 61 47 104.5t103 43.5zM1069 248q63 0 95 -35t32 -90q0 -64 -45 -105t-104 -41q-52 0 -88.5 34t-36.5 89q0 61 46 104.5t101 43.5zM1776 248q63 0 95 -35t32 -90q0 -64 -45 -105 t-105 -41q-52 0 -89.5 34t-37.5 89q0 61 47.5 104.5t102.5 43.5z" />
<glyph unicode="&#x202f;" horiz-adv-x="384" />
<glyph unicode="&#x2039;" horiz-adv-x="1189" d="M246 692l647 383l51 -86l-514 -375l514 -360l-51 -90l-647 364v164z" />
<glyph unicode="&#x203a;" horiz-adv-x="1189" d="M246 248l512 375l-512 360l51 92l647 -364v-166l-647 -381z" />
<glyph unicode="&#x205f;" horiz-adv-x="480" />
<glyph unicode="&#x20ac;" horiz-adv-x="1390" d="M852 1567q87 0 161.5 -11.5t165.5 -35.5l91 -25l-17 -289h-86l-53 166q-115 78 -326 78q-168 0 -270.5 -109t-138.5 -317h569v-127h-583q-5 -46 -5 -111q0 -78 2 -94h558v-127h-549q13 -109 41.5 -193.5t78.5 -152.5t129.5 -104.5t186.5 -36.5q118 0 188.5 22t141.5 76 q21 88 45 174h88v-287q-29 -2 -79.5 -17t-102.5 -31.5t-140.5 -30t-185.5 -13.5q-265 0 -413.5 158t-182.5 436h-205v127h195v33q0 89 12 172h-176v127h198q65 257 237.5 400t424.5 143z" />
<glyph unicode="&#x2122;" horiz-adv-x="2217" d="M315 854l121 14v590l-157 -10l-43 -129h-66l20 233h676v-231l-61 -6l-27 133l-166 12v-592l129 -14v-78h-426v78zM956 854l109 14l31 592l-105 8v84h355l155 -426l45 -151l187 577h307v-84l-96 -8l61 -590l96 -16v-78h-348v78l90 14l-31 371l-10 221l-18 -67l-211 -625 h-109l-213 549l-57 149l-2 -157l-21 -441l97 -14v-78h-312v78z" />
<glyph unicode="&#x25fc;" horiz-adv-x="1116" d="M0 1116h1116v-1116h-1116v1116z" />
<glyph unicode="&#xfb03;" horiz-adv-x="2357" d="M721 1690q110 0 143 -19v-170q-17 11 -67.5 22t-114.5 11q-47 0 -75 -7.5t-54 -32t-37.5 -76t-11.5 -134.5v-166h301v-135h-301v-879l229 -18v-86h-622v86l200 20v877h-221v78l221 57v84q0 106 40.5 200.5t102 155.5t132.5 96.5t135 35.5zM1559 1690q105 0 143 -19v-170 q-19 11 -69.5 22t-114.5 11q-47 0 -75 -7.5t-54.5 -32t-38 -76t-11.5 -134.5v-166h303v-135h-303v-879l232 -18v-86h-625v86l203 20v877h-221v78l221 57v84q0 106 40 200.5t101.5 155.5t132.5 96.5t136 35.5zM2030 1645q63 0 95 -35t32 -90q0 -64 -45 -105t-105 -41 q-52 0 -89.5 34t-37.5 89q0 61 47.5 104.5t102.5 43.5zM2095 1139l45 -21v-1012l162 -20v-86h-516v86l170 20v820l-137 71v64z" />
<glyph unicode="&#xfb04;" horiz-adv-x="2371" d="M111 86l200 20v877h-221v78l221 57v84q0 106 40.5 200.5t102 155.5t132.5 96.5t135 35.5q110 0 143 -19v-170q-17 11 -67.5 22t-114.5 11q-47 0 -75 -7.5t-54 -32t-37.5 -76t-11.5 -134.5v-166h301v-135h-301v-879l229 -18v-86h-622v86zM946 86l203 20v877h-221v78 l221 57v84q0 106 40 200.5t101.5 155.5t132.5 96.5t136 35.5q105 0 143 -19v-170q-19 11 -69.5 22t-114.5 11q-47 0 -75 -7.5t-54.5 -32t-38 -76t-11.5 -134.5v-166h303v-135h-303v-879l232 -18v-86h-625v86zM1782 86l170 20v1354l-160 35v88l313 41l39 -22v-1496l178 -20 v-86h-540v86z" />
</font>
</defs>
</svg>
